<svg version="1.1" id="Layer_1" xmlns="http://www.w3.org/2000/svg" xmlns:xlink="http://www.w3.org/1999/xlink" x="0px" y="0px"
	 width="100%" viewBox="0 0 2000 600" enable-background="new 0 0 2000 600" xml:space="preserve">
<path fill="#FFFFFF" opacity="1.000000" stroke="none" 
	d="
M1265.000000,601.000000 
	C843.333313,601.000000 422.166656,601.000000 1.000000,601.000000 
	C1.000000,401.000000 1.000000,201.000000 1.000000,1.000000 
	C667.666687,1.000000 1334.333374,1.000000 2001.000000,1.000000 
	C2001.000000,201.000000 2001.000000,401.000000 2001.000000,601.000000 
	C1755.833374,601.000000 1510.666626,601.000000 1265.000000,601.000000 
M1809.348389,282.182983 
	C1808.188599,283.768829 1807.028931,285.354675 1805.331543,287.264252 
	C1804.533936,288.467224 1803.736328,289.670227 1802.332764,291.193878 
	C1800.512695,293.776245 1798.692749,296.358612 1796.283447,299.259521 
	C1794.144897,302.153625 1792.006470,305.047729 1789.272949,308.226532 
	C1788.136475,309.799530 1787.000000,311.372559 1785.277100,313.222626 
	C1784.499023,314.444092 1783.720947,315.665558 1782.332031,317.180573 
	C1780.514282,319.434265 1778.696655,321.687927 1776.302246,324.233856 
	C1775.090088,325.855194 1773.877808,327.476562 1772.105835,329.582062 
	C1770.032715,332.372101 1767.959717,335.162140 1765.274780,338.259735 
	C1761.793701,342.957886 1758.312500,347.656036 1754.477539,352.831787 
	C1767.575439,352.831787 1779.783569,352.831787 1792.852417,352.985229 
	C1797.269653,351.670105 1801.686890,350.354980 1806.793701,348.999542 
	C1808.896118,347.009644 1810.998413,345.019775 1813.711792,342.782990 
	C1814.841675,341.198212 1815.971680,339.613464 1817.710815,337.781067 
	C1818.838989,336.197479 1819.967285,334.613892 1821.693481,332.782745 
	C1822.491577,331.533875 1823.289673,330.285004 1824.700562,328.764587 
	C1826.497681,326.517883 1828.294800,324.271179 1830.680786,321.702057 
	C1832.481079,319.146637 1834.281372,316.591217 1836.659302,313.774475 
	C1837.122803,312.875580 1837.586182,311.976654 1838.648315,310.789368 
	C1839.781494,309.218933 1840.914795,307.648499 1842.643799,305.789154 
	C1843.793213,304.205170 1844.942627,302.621185 1846.680664,300.758026 
	C1847.801392,299.201538 1848.922119,297.645020 1850.649292,295.785522 
	C1852.569824,293.449921 1854.490356,291.114319 1856.849121,288.212097 
	C1863.361572,279.822601 1869.874023,271.433075 1876.270020,263.193634 
	C1871.911255,257.377686 1867.983032,252.136185 1863.756958,246.281113 
	C1859.541748,240.503265 1855.326538,234.725418 1850.802124,228.327972 
	C1847.573242,223.866730 1844.344238,219.405502 1840.803589,214.329544 
	C1838.345581,210.938950 1835.887573,207.548355 1833.064941,203.655838 
	C1830.748413,200.754822 1828.431763,197.853806 1825.996216,194.246002 
	C1822.683350,189.794891 1819.370605,185.343796 1815.982666,180.191849 
	C1812.241211,174.856873 1808.716553,169.289200 1801.280273,166.803787 
	C1797.184937,166.255859 1793.089478,165.707947 1788.087036,165.023254 
	C1784.722534,165.069794 1781.357910,165.116333 1777.065918,165.025589 
	C1768.591797,165.025589 1760.117798,165.025589 1750.335449,165.025589 
	C1755.903076,172.182587 1760.928955,178.643143 1766.003296,185.811356 
	C1768.989746,189.912003 1771.976196,194.012650 1775.223389,198.742599 
	C1778.449219,202.842972 1781.674927,206.943329 1784.995117,211.751114 
	C1787.317627,214.872543 1789.640259,217.993973 1792.228638,221.743729 
	C1796.121826,226.848022 1800.014893,231.952316 1803.991577,237.762253 
	C1808.644653,243.875473 1813.297852,249.988693 1818.007202,256.809326 
	C1821.821289,261.269897 1824.513672,265.804718 1818.341064,271.188232 
	C1816.852417,273.106171 1815.363770,275.024139 1813.295410,277.231903 
	C1812.176758,278.779602 1811.058105,280.327301 1809.348389,282.182983 
M1027.999268,225.696823 
	C1026.473022,214.501465 1023.570374,203.746582 1017.978821,193.820999 
	C1011.784668,182.825775 1003.353882,173.860062 991.922302,168.615021 
	C977.432373,161.966736 962.194519,159.800140 946.044128,161.789246 
	C927.116699,164.120392 911.553650,171.495880 900.434814,186.649673 
	C895.526611,182.031769 891.220703,176.763672 885.819580,173.118118 
	C866.620300,160.159271 845.315430,158.449509 823.290405,163.410797 
	C806.338135,167.229401 793.091370,176.625046 783.914551,191.572906 
	C776.120483,204.268478 772.400879,218.366943 772.188843,232.910141 
	C771.630371,271.221741 771.997314,309.546875 772.009155,347.866638 
	C772.009644,349.475037 772.144836,351.083374 772.216553,352.675140 
	C787.301880,352.675140 802.025085,352.675140 817.000000,352.675140 
	C817.000000,350.539368 817.000000,348.726746 817.000000,346.914154 
	C817.000000,311.593353 816.963684,276.272461 817.044250,240.951843 
	C817.054749,236.364349 817.130493,231.659912 818.109009,227.215012 
	C820.481812,216.436172 826.122437,208.007477 837.174744,204.376236 
	C849.632690,200.283173 866.491943,205.214081 872.645569,217.892532 
	C875.937317,224.674545 877.880066,231.612045 877.916931,238.921677 
	C878.099365,275.074615 878.000000,311.228973 878.000000,347.382812 
	C878.000000,349.152161 878.000000,350.921539 878.000000,352.669495 
	C893.313538,352.669495 908.036743,352.669495 923.000000,352.669495 
	C923.000000,350.526367 923.000000,348.712280 923.000000,346.898163 
	C923.000000,312.243774 922.963074,277.589325 923.044434,242.935150 
	C923.055237,238.346542 923.221558,233.672791 924.090027,229.188385 
	C926.331055,217.616180 932.085510,208.728745 943.849792,204.549408 
	C955.506104,200.408401 973.151672,204.379517 978.398621,217.057068 
	C981.016541,223.382492 983.660400,230.289581 983.753845,236.969086 
	C984.268738,273.782166 984.000000,310.606201 984.000000,347.426483 
	C984.000000,349.191650 984.000000,350.956787 984.000000,352.654053 
	C999.344849,352.654053 1014.068420,352.654053 1028.000000,352.654053 
	C1028.000000,310.407257 1028.000000,268.508942 1027.999268,225.696823 
M1672.492676,330.995087 
	C1672.937866,331.488617 1673.466064,331.929718 1673.815918,332.483490 
	C1682.421875,346.101135 1694.270996,353.677979 1710.879517,353.060913 
	C1720.029907,352.720886 1729.203369,353.014923 1738.366333,352.981628 
	C1739.558350,352.977264 1740.749634,352.724548 1742.656250,352.504242 
	C1739.579224,348.535309 1736.914062,345.258270 1734.420410,341.855469 
	C1713.526733,313.345184 1692.672607,284.805939 1671.774048,256.299225 
	C1670.473145,254.524719 1670.301880,253.399414 1671.915649,251.410995 
	C1680.559937,240.759705 1688.938354,229.892303 1697.395752,219.089615 
	C1709.376831,203.786285 1721.362305,188.486526 1733.304199,173.152756 
	C1735.119141,170.822220 1736.708862,168.316360 1739.021118,165.006714 
	C1726.446045,165.006714 1715.082520,164.191879 1703.913696,165.314026 
	C1697.272949,165.981232 1689.804565,168.286896 1684.729736,172.369080 
	C1676.940186,178.634995 1670.586426,186.814865 1664.171265,194.632050 
	C1652.823730,208.459442 1641.888428,222.625046 1630.002441,237.631668 
	C1630.002441,184.418365 1630.002441,132.419144 1630.002441,80.277679 
	C1614.793457,80.277679 1600.071167,80.277679 1585.282471,80.277679 
	C1585.282471,171.256882 1585.282471,261.958130 1585.282471,352.681396 
	C1600.290039,352.681396 1615.012695,352.681396 1630.268188,352.681396 
	C1630.268188,326.074615 1630.268188,299.783203 1630.268188,272.645844 
	C1632.460083,275.700836 1634.059082,277.940735 1635.669678,280.172089 
	C1647.772461,296.938751 1659.877319,313.703827 1672.492676,330.995087 
M707.983948,295.046783 
	C704.033020,297.155273 699.598938,298.680695 696.220581,301.480164 
	C685.537292,310.332794 673.613831,316.493988 659.840515,317.863037 
	C643.413513,319.495850 627.723267,316.557434 614.577942,305.780182 
	C603.167480,296.425262 597.028931,283.987518 595.058716,269.000000 
	C597.303406,269.000000 599.118652,269.000000 600.933960,269.000000 
	C644.927368,269.000000 688.921082,268.918488 732.913635,269.112488 
	C737.905151,269.134460 739.391785,267.329803 739.017090,262.817017 
	C738.608337,257.894379 738.600830,252.924438 737.940430,248.039734 
	C736.807129,239.657547 736.140930,231.080276 733.783813,223.022171 
	C728.434875,204.736221 718.786499,189.096085 702.773376,177.945709 
	C678.721069,161.197418 652.068542,158.057236 624.284851,164.200592 
	C597.034119,170.226089 576.887146,186.711838 564.137756,211.290497 
	C554.216858,230.416290 551.260376,251.087219 553.824585,272.716370 
	C555.483276,286.707825 559.318420,299.721954 566.386047,311.798615 
	C577.382935,330.589508 593.177612,343.796631 613.721008,350.953094 
	C632.486206,357.490234 651.667114,358.597290 671.345276,355.136292 
	C700.167847,350.066925 721.374756,334.054352 738.450562,310.753052 
	C735.789062,308.520721 733.414246,306.537598 731.048889,304.543304 
	C724.615234,299.119019 718.077332,293.941650 707.983948,295.046783 
M268.064636,226.744659 
	C262.520264,245.786880 261.644775,265.071777 266.082031,284.374390 
	C271.551910,308.169006 283.657806,327.668976 304.532532,341.188232 
	C327.729034,356.211060 353.401764,359.978790 379.932983,355.698120 
	C407.840881,351.195343 430.209442,336.472321 446.971527,313.524811 
	C448.495789,311.438080 448.596588,310.086273 446.086395,308.425629 
	C442.418640,305.999207 439.080200,303.053131 435.717865,300.191650 
	C429.108154,294.566620 421.675629,293.077362 413.888855,296.787048 
	C409.699677,298.782776 406.167084,302.160614 402.347504,304.927704 
	C386.289856,316.560669 368.481934,320.526154 349.015106,316.978546 
	C338.122314,314.993439 328.596161,309.869232 320.915680,302.173645 
	C311.965027,293.205383 306.788879,282.023682 305.589783,268.806885 
	C353.250763,268.806885 400.987305,268.806885 450.162415,268.806885 
	C448.731628,255.365005 448.390198,242.286285 445.779877,229.677277 
	C440.248566,202.958527 425.518066,182.381226 400.598724,170.376511 
	C379.060608,160.000671 356.027893,158.551910 333.269470,164.584244 
	C300.904175,173.162994 279.006287,193.882462 268.064636,226.744659 
M1145.533691,162.000000 
	C1141.945312,162.368530 1138.264771,162.347092 1134.783691,163.169495 
	C1113.778442,168.131866 1095.542236,177.591324 1081.582520,194.755219 
	C1069.251587,209.916489 1062.035645,227.201767 1060.275269,246.293396 
	C1058.996094,260.166229 1059.072754,274.329681 1062.975830,288.086060 
	C1068.856934,308.813110 1079.542236,326.194336 1097.330811,338.871368 
	C1108.213257,346.626831 1120.132080,351.887817 1133.194214,354.616486 
	C1149.509033,358.024719 1165.828369,358.053375 1182.095703,354.429810 
	C1198.583862,350.757080 1213.343872,343.254120 1225.977905,332.231720 
	C1233.172729,325.954590 1239.068848,318.188873 1245.541016,311.103088 
	C1241.301636,307.625549 1237.967651,304.990631 1234.743408,302.227692 
	C1223.765869,292.821014 1211.944336,292.283356 1202.186279,301.420746 
	C1192.300903,310.677338 1180.613403,316.391418 1167.466919,317.792145 
	C1142.724976,320.428284 1121.888306,312.874725 1108.484985,290.674713 
	C1104.656860,284.334320 1101.570312,277.198151 1102.166504,268.733856 
	C1150.079834,268.733856 1197.472778,268.733856 1246.216675,268.733856 
	C1244.765869,255.038742 1244.577026,241.716644 1241.761719,228.974823 
	C1234.966187,198.217880 1216.636597,176.706482 1186.501465,166.320862 
	C1173.603638,161.875809 1160.127563,160.508911 1145.533691,162.000000 
M126.000000,85.613602 
	C126.000000,96.028641 126.000000,106.443680 126.000000,117.155106 
	C145.686325,117.155106 164.627274,117.155106 184.000000,117.155106 
	C184.000000,119.409294 184.000000,121.370255 184.000000,123.331215 
	C184.000000,184.817917 183.955322,246.304688 184.032578,307.791290 
	C184.051041,322.488464 189.544540,334.798309 201.392548,343.831421 
	C209.362701,349.907959 218.425781,352.974609 229.007217,353.006775 
	C229.007217,274.210449 229.007217,195.820099 229.007217,116.940781 
	C248.529205,116.940781 267.591248,116.940781 286.685577,116.940781 
	C286.685577,104.389160 286.685577,92.330833 286.685577,80.167419 
	C233.104584,80.167419 179.838104,80.167419 126.246635,80.167419 
	C126.159584,81.746620 126.079788,83.194107 126.000000,85.613602 
M1333.118042,164.217484 
	C1333.118042,143.191727 1333.118042,122.165962 1333.118042,100.532372 
	C1325.718994,103.102364 1319.333740,105.385208 1312.905396,107.539696 
	C1298.949585,112.217133 1288.460693,127.079414 1288.950439,141.157516 
	C1289.225220,149.059464 1289.000000,156.978790 1289.000000,165.179749 
	C1280.953979,165.179749 1273.677368,165.179749 1266.280518,165.179749 
	C1266.280518,178.882294 1266.280518,192.269547 1266.280518,206.145203 
	C1273.950073,206.145203 1281.350464,206.145203 1288.500000,206.145203 
	C1288.500000,255.291611 1288.500000,303.947449 1288.500000,352.712280 
	C1303.231445,352.712280 1317.951538,352.712280 1333.133545,352.712280 
	C1333.133545,303.719238 1333.133545,255.011826 1333.133545,205.817734 
	C1340.988525,205.817734 1348.389526,205.817734 1355.629883,205.817734 
	C1355.629883,191.935181 1355.629883,178.546005 1355.629883,164.885300 
	C1348.108032,164.885300 1340.955322,164.885300 1333.118042,164.217484 
M481.000000,298.500000 
	C481.000000,316.581451 481.000000,334.662903 481.000000,352.648254 
	C496.365082,352.648254 511.084747,352.648254 525.678650,352.648254 
	C525.678650,261.618256 525.678650,170.940338 525.678650,80.351654 
	C510.635071,80.351654 495.915466,80.351654 481.000000,80.351654 
	C481.000000,152.968735 481.000000,225.234375 481.000000,298.500000 
M1385.989136,219.291000 
	C1385.659424,221.552200 1385.045532,223.812988 1385.042358,226.074646 
	C1384.984253,266.721252 1385.000000,307.367981 1385.000000,348.014679 
	C1385.000000,349.604065 1385.000000,351.193481 1385.000000,352.625214 
	C1400.406250,352.625214 1415.129272,352.625214 1430.000000,352.625214 
	C1430.000000,351.257751 1430.000000,350.265106 1430.000000,349.272430 
	C1430.000000,307.959412 1429.946045,266.646240 1430.033325,225.333420 
	C1430.059204,213.129562 1437.745728,205.939728 1449.284058,205.993820 
	C1456.394897,206.027145 1463.505859,206.000000 1470.708984,206.000000 
	C1470.708984,192.098068 1470.708984,178.709671 1470.708984,166.012024 
	C1457.856079,166.012024 1445.196289,165.051239 1432.775024,166.358032 
	C1424.817261,167.195236 1416.588379,170.283752 1409.571899,174.278931 
	C1392.793823,183.832474 1387.362305,200.182831 1385.989136,219.291000 
M1498.000000,233.500000 
	C1498.000000,273.227081 1498.000000,312.954193 1498.000000,352.681488 
	C1512.969604,352.681488 1527.352539,352.681488 1541.708008,352.681488 
	C1541.708008,290.015350 1541.708008,227.668152 1541.708008,165.318329 
	C1527.030762,165.318329 1512.647827,165.318329 1498.000000,165.318329 
	C1498.000000,187.923782 1498.000000,210.211899 1498.000000,233.500000 
M966.000000,491.493164 
	C966.000000,477.070435 966.000000,462.647705 966.000000,448.336853 
	C959.931824,448.336853 954.538574,448.336853 949.130859,448.336853 
	C949.027344,450.260254 948.941895,451.847992 948.848816,453.578033 
	C931.167542,441.328827 913.288757,448.298584 905.832153,457.806946 
	C897.297363,468.690216 897.107300,485.450287 907.153442,496.153320 
	C911.186707,500.450317 917.761780,503.577820 923.645874,504.628601 
	C931.910034,506.104492 940.795837,505.977631 947.813477,499.010162 
	C948.106628,508.000519 943.714722,514.024780 936.905090,515.037354 
	C928.029175,516.357178 919.881775,514.784729 912.307068,509.932983 
	C911.524841,509.431946 909.438965,509.447510 909.152832,509.930756 
	C906.852356,513.816162 904.838867,517.871399 902.513550,522.301514 
	C905.060669,523.639954 907.275330,524.891052 909.562805,525.990540 
	C919.439880,530.737915 930.085388,530.679504 940.524719,529.820740 
	C951.045837,528.955261 959.068237,523.716736 963.420959,513.330566 
	C966.290833,506.482574 965.895874,499.523224 966.000000,491.493164 
M1660.433228,447.000000 
	C1646.242554,447.484924 1636.775024,453.116211 1631.722656,465.702087 
	C1628.308838,474.206207 1629.591187,490.030670 1639.053101,497.635193 
	C1651.408447,507.565155 1664.232300,507.440155 1677.630005,500.161896 
	C1678.629395,509.843658 1669.657227,518.041260 1660.012085,515.850281 
	C1653.337891,514.334290 1646.863037,511.940186 1639.635010,509.735870 
	C1637.747925,513.122498 1635.409180,517.319458 1632.927979,521.772278 
	C1634.531616,522.851929 1635.806641,523.862366 1637.213257,524.632629 
	C1646.303345,529.610352 1656.156006,530.203430 1666.276367,530.069519 
	C1684.871094,529.823425 1696.041504,518.943359 1696.005371,500.123932 
	C1695.978760,486.305573 1696.000000,472.487122 1696.000000,458.668732 
	C1696.000000,455.225952 1696.000000,451.783203 1696.000000,448.242065 
	C1690.033691,448.242065 1684.613647,448.242065 1679.216431,448.242065 
	C1679.040405,450.167938 1678.886353,451.851868 1678.857544,452.166992 
	C1672.909912,450.413147 1667.122559,448.706573 1660.433228,447.000000 
M1567.961792,454.447968 
	C1564.071777,452.535492 1560.351929,450.067871 1556.260010,448.813934 
	C1543.735352,444.975830 1532.473267,447.531189 1522.862915,456.637024 
	C1516.109375,463.036255 1514.732300,471.106018 1514.875610,480.008118 
	C1514.990112,487.123810 1517.093018,493.070740 1521.783691,498.310608 
	C1530.704346,508.276367 1542.423218,509.904938 1554.676514,508.825989 
	C1562.175781,508.165619 1569.033447,505.139069 1574.765137,498.384216 
	C1571.974121,495.899231 1569.181274,493.764526 1566.831299,491.220703 
	C1564.535889,488.736115 1563.121582,488.745148 1560.304443,490.947113 
	C1553.074707,496.598267 1536.187256,495.663696 1533.169922,483.000000 
	C1534.878174,483.000000 1536.473999,483.000000 1538.069824,483.000000 
	C1549.569702,483.000000 1561.075195,482.791199 1572.566650,483.102936 
	C1577.149780,483.227295 1578.485718,481.572815 1578.029907,477.328339 
	C1577.122314,468.877075 1575.212280,460.908661 1567.961792,454.447968 
M1421.904053,504.586517 
	C1424.022339,502.863739 1426.140747,501.140961 1428.513062,499.211609 
	C1425.004150,495.530609 1421.884277,492.257721 1419.709595,489.976379 
	C1413.010376,491.434021 1407.163940,493.379120 1401.205200,493.826355 
	C1394.296875,494.344879 1389.366089,489.789673 1387.761963,482.791718 
	C1402.423950,482.791718 1417.019531,482.791718 1431.801025,482.791718 
	C1432.661865,472.857422 1431.102539,463.895477 1424.116455,456.674316 
	C1415.382202,447.646149 1404.569702,445.261292 1392.639038,448.073730 
	C1381.784546,450.632477 1373.510254,457.025635 1370.287720,467.820404 
	C1367.011719,478.793945 1368.280029,489.706390 1376.270752,498.666748 
	C1385.867188,509.427521 1406.560425,512.677246 1421.904053,504.586517 
M1059.098511,504.589844 
	C1068.796875,510.486633 1082.693115,511.695557 1092.883545,502.280518 
	C1092.975342,504.256317 1093.054565,505.961609 1093.136475,507.726715 
	C1098.823853,507.726715 1104.234619,507.726715 1108.970093,507.726715 
	C1108.970093,493.741791 1109.497192,480.007874 1108.751831,466.343384 
	C1108.368774,459.321472 1104.171997,453.735840 1097.216309,450.596619 
	C1085.256226,445.198730 1073.342041,446.187897 1061.681641,450.910248 
	C1053.453125,454.242706 1053.484863,453.417694 1057.818604,461.478058 
	C1058.801514,463.306274 1059.662231,465.200195 1060.732422,467.375061 
	C1062.757080,466.490204 1064.455078,465.449615 1066.297363,465.001251 
	C1070.985840,463.860260 1075.747925,462.164429 1080.463135,462.218658 
	C1085.815308,462.280182 1091.638428,464.600861 1090.658691,471.587372 
	C1083.913452,472.058960 1077.153931,472.287445 1070.459351,473.070770 
	C1064.230835,473.799530 1058.424805,475.635315 1054.834351,481.572113 
	C1050.831543,488.190704 1052.174194,499.640503 1059.098511,504.589844 
M1442.000000,500.432800 
	C1442.000000,502.864868 1442.000000,505.296936 1442.000000,507.648193 
	C1448.689575,507.648193 1454.750977,507.648193 1461.000000,507.648193 
	C1461.000000,496.646515 1460.939575,485.995270 1461.022705,475.345154 
	C1461.072754,468.938721 1466.017212,463.850769 1472.744751,463.007050 
	C1478.104492,462.334900 1483.436279,465.571014 1484.794434,470.710419 
	C1485.537720,473.522736 1485.904175,476.505585 1485.947632,479.418884 
	C1486.087891,488.849060 1486.000000,498.282684 1486.000000,507.655365 
	C1492.341187,507.655365 1498.069580,507.655365 1503.999512,507.655365 
	C1503.999512,495.496735 1504.838867,483.607178 1503.801270,471.883759 
	C1502.274536,454.634735 1494.947876,446.939392 1476.997803,447.252777 
	C1471.354004,447.351257 1465.762329,450.430908 1460.130371,452.151062 
	C1460.048096,451.216400 1459.921021,449.772766 1459.789795,448.281555 
	C1453.829590,448.281555 1448.084229,448.281555 1442.000000,448.281555 
	C1442.000000,465.524323 1442.000000,482.487793 1442.000000,500.432800 
M873.062927,507.953918 
	C878.313965,507.953918 883.565063,507.953918 888.999512,507.953918 
	C888.999512,494.835602 889.297485,482.358215 888.865295,469.906158 
	C888.668884,464.247528 886.701660,459.047058 882.351440,454.584564 
	C877.595642,449.706024 871.775391,448.194244 865.690796,447.416931 
	C854.371155,445.970917 843.710876,448.268982 833.720276,454.411469 
	C834.920227,456.776764 835.930054,458.802734 836.972229,460.811890 
	C838.073425,462.934631 839.205383,465.041382 840.230225,466.978058 
	C844.486023,465.353577 848.162537,463.607361 852.027344,462.547272 
	C859.724060,460.436157 870.763733,462.861908 870.647644,471.280518 
	C861.953918,472.193787 853.235413,472.633881 844.710083,474.155762 
	C837.892212,475.372894 833.536072,480.331177 832.145081,487.069244 
	C830.910767,493.048401 832.863708,500.942230 839.047424,504.659149 
	C850.310669,511.429169 861.136292,510.510559 871.849854,503.641022 
	C871.987305,504.997711 872.120911,506.316101 873.062927,507.953918 
M1740.909668,487.398773 
	C1738.809570,493.191986 1741.494019,497.795166 1744.710693,502.187347 
	C1750.569336,510.186646 1769.444458,512.157715 1779.846436,503.348816 
	C1779.970215,504.908142 1780.080933,506.302277 1780.194336,507.731445 
	C1785.802856,507.731445 1791.219849,507.731445 1796.996338,507.731445 
	C1796.996338,494.017029 1797.518555,480.539062 1796.780273,467.130524 
	C1796.400757,460.235992 1792.872559,454.256409 1785.896973,450.919464 
	C1773.850708,445.156616 1761.719604,446.033752 1749.908203,450.767395 
	C1741.292725,454.220337 1741.417358,453.450348 1745.928589,461.665558 
	C1746.912964,463.458160 1747.755371,465.328766 1748.727539,467.293915 
	C1750.190063,466.737823 1751.209839,466.229156 1752.289429,465.959900 
	C1757.716187,464.606384 1763.113403,462.520233 1768.607056,462.208923 
	C1775.103882,461.840759 1779.013428,466.296753 1778.536133,471.612976 
	C1771.784668,472.076141 1765.023438,472.304474 1758.321167,473.056519 
	C1748.898926,474.113678 1742.157593,478.371002 1740.909668,487.398773 
M1000.030212,486.967896 
	C999.686829,484.390045 999.075806,481.815216 999.047119,479.233856 
	C998.932800,468.957764 999.000000,458.679657 999.000000,448.287384 
	C992.776489,448.287384 987.052307,448.287384 981.404053,448.287384 
	C981.227356,448.875061 981.056702,449.178925 981.055969,449.483154 
	C981.027710,461.477051 981.046631,473.471100 980.991577,485.464844 
	C980.929016,499.116089 990.554688,509.234161 1004.385010,508.797821 
	C1010.962158,508.590332 1017.471375,506.232117 1023.948975,504.861359 
	C1023.955566,504.932770 1024.086426,506.343262 1024.210449,507.680573 
	C1029.921631,507.680573 1035.331055,507.680573 1040.648193,507.680573 
	C1040.648193,487.638367 1040.648193,467.917542 1040.648193,448.391235 
	C1034.559692,448.391235 1028.829590,448.391235 1023.000000,448.391235 
	C1023.000000,458.608734 1023.000610,468.435272 1022.999756,478.261841 
	C1022.999207,485.069946 1020.193665,490.189056 1015.520142,492.001556 
	C1009.362244,494.389709 1004.276611,493.010620 1000.030212,486.967896 
M1528.491699,80.000000 
	C1518.417114,80.000000 1508.342529,80.000000 1498.308105,80.000000 
	C1498.308105,98.656036 1498.308105,116.684921 1498.308105,134.687103 
	C1512.987061,134.687103 1527.355835,134.687103 1541.691650,134.687103 
	C1541.691650,116.343605 1541.691650,98.314713 1541.691650,80.000000 
	C1537.422241,80.000000 1533.455322,80.000000 1528.491699,80.000000 
M362.000000,431.615356 
	C362.000000,439.536682 362.000000,447.458038 362.000000,455.691772 
	C347.754791,444.255463 327.687744,446.788300 318.458893,459.178925 
	C309.594177,471.080627 308.570862,487.948730 320.757416,500.815796 
	C329.702576,510.260437 347.227264,513.518555 362.016113,501.202209 
	C362.016113,503.589966 362.016113,505.617279 362.016113,507.710602 
	C365.876343,507.710602 369.278381,507.710602 372.693359,507.710602 
	C372.693359,480.372833 372.693359,453.325623 372.693359,426.166626 
	C369.110931,426.166626 365.836426,426.166626 362.244659,426.166626 
	C362.157837,427.755951 362.078918,429.200378 362.000000,431.615356 
M526.165894,508.992981 
	C527.751465,508.660889 529.337280,508.329834 530.922546,507.996582 
	C536.995667,506.719910 542.154663,503.849915 545.994385,498.933258 
	C554.181580,488.449982 555.129639,476.984375 550.006775,464.971222 
	C544.979614,453.182404 532.765503,446.881531 520.276184,449.027222 
	C514.334717,450.048004 508.635620,452.479950 502.833862,454.270416 
	C502.833862,453.274353 502.833862,451.329437 502.833862,449.268372 
	C499.165649,449.268372 495.763794,449.268372 492.258972,449.268372 
	C492.258972,475.898590 492.258972,502.259735 492.258972,528.706421 
	C495.912842,528.706421 499.301270,528.706421 503.205933,528.706421 
	C503.205933,519.443726 503.205933,510.463684 503.205933,500.897064 
	C509.813934,507.155884 517.109375,509.313416 526.165894,508.992981 
M705.000793,476.712952 
	C705.135071,485.071960 706.802734,492.927124 712.766846,499.251434 
	C723.611450,510.751190 739.393616,511.186310 752.621399,505.604309 
	C761.255432,501.960846 761.489075,498.592682 754.726501,492.345367 
	C754.517029,492.151855 754.123779,492.157349 753.827209,492.073151 
	C738.362793,505.071289 718.836365,496.490326 717.302673,482.902527 
	C732.760010,482.902527 748.178223,482.902527 763.508606,482.902527 
	C766.047546,470.512695 759.646423,457.090881 751.097900,452.813782 
	C747.012085,450.769470 742.277771,449.796387 737.722839,448.963684 
	C729.496643,447.459778 722.110168,449.782654 715.568298,454.938385 
	C708.805359,460.268188 706.448608,467.806427 705.000793,476.712952 
M1294.676514,474.000000 
	C1281.243896,474.137848 1273.498657,480.862091 1274.108276,491.469604 
	C1274.774536,503.064270 1281.176270,507.422119 1294.256348,508.876007 
	C1301.727539,509.706451 1308.867798,507.722717 1314.878052,502.034424 
	C1314.998047,504.447449 1315.078369,506.061707 1315.160645,507.717224 
	C1318.850952,507.717224 1322.260132,507.717224 1325.995117,507.717224 
	C1325.995117,494.983673 1326.683350,482.480652 1325.797119,470.090240 
	C1324.950317,458.251556 1320.910767,452.755646 1309.667236,449.501404 
	C1305.031616,448.159729 1299.734009,448.961243 1294.741089,449.032532 
	C1287.733765,449.132629 1281.466553,451.436584 1275.582397,456.110992 
	C1277.207520,459.242767 1278.786133,462.285095 1280.456055,465.503326 
	C1286.031494,460.661285 1292.258301,458.800964 1301.234009,458.878937 
	C1309.066406,458.947021 1315.860352,466.291870 1313.406006,474.000000 
	C1307.566895,474.000000 1301.601562,474.000000 1294.676514,474.000000 
M276.011841,448.516174 
	C272.798828,448.678314 269.519379,448.487122 266.386688,449.076324 
	C259.907196,450.294983 254.360275,453.242767 249.864990,458.336945 
	C244.142624,464.821808 242.912735,472.277588 242.833389,480.644562 
	C242.727448,491.814362 250.356369,502.806641 260.304260,506.603180 
	C278.318756,513.478210 299.633240,505.687042 303.632416,484.614227 
	C307.091125,466.389465 295.218353,449.365417 276.011841,448.516174 
M448.897034,479.418823 
	C448.598022,477.501434 448.225464,475.592133 448.012817,473.665222 
	C447.154083,465.883575 443.782257,459.526825 437.450562,454.828766 
	C430.359009,449.566925 422.570068,448.203003 413.707397,448.833374 
	C389.714294,450.539886 380.649170,477.408508 391.406311,494.984009 
	C398.732361,506.953674 414.225891,511.718750 428.026306,507.435242 
	C441.314545,503.310699 447.622559,493.713501 448.897034,479.418823 
M579.890686,506.955322 
	C589.814148,510.207458 599.586548,509.865753 608.679565,504.626312 
	C621.216736,497.402405 624.594788,482.512268 621.272888,469.748566 
	C619.689819,463.666229 616.692444,458.578186 611.413391,454.676514 
	C603.068237,448.508636 593.775635,447.394928 584.120667,449.166931 
	C576.715881,450.525970 570.179016,454.342010 566.098206,460.875397 
	C556.134399,476.827362 560.542908,498.797333 579.890686,506.955322 
M1175.491577,486.990875 
	C1170.334351,475.249237 1165.200317,463.497284 1159.980103,451.783691 
	C1159.514282,450.738159 1158.548462,449.225952 1157.711548,449.155365 
	C1154.204590,448.859619 1150.658325,449.030609 1146.522827,449.030609 
	C1153.636475,465.068604 1160.369873,480.182251 1167.036377,495.325287 
	C1168.793579,499.316467 1172.306396,503.773804 1171.618652,507.367554 
	C1169.635742,517.729065 1164.442871,523.492798 1153.004150,517.983582 
	C1151.863281,517.434143 1150.865967,516.586792 1149.445923,515.640381 
	C1148.532837,517.288452 1148.000488,518.914917 1146.939453,520.044739 
	C1143.095215,524.138062 1145.794067,526.024658 1149.317505,527.706665 
	C1159.189697,532.419434 1173.576782,531.219238 1179.662720,517.735962 
	C1188.147705,498.937744 1196.545532,480.099945 1204.914307,461.249695 
	C1206.655151,457.328522 1208.106812,453.278931 1209.748657,449.144745 
	C1205.616455,449.144745 1201.966553,449.144745 1198.202515,449.144745 
	C1191.760864,464.099609 1185.353271,478.975555 1178.634521,494.573944 
	C1177.533203,491.742310 1176.733154,489.685608 1175.491577,486.990875 
M218.000000,464.500000 
	C218.000000,456.747650 218.000000,448.995300 218.000000,440.783051 
	C227.367569,440.783051 236.097092,440.783051 244.613495,440.783051 
	C244.613495,436.904022 244.613495,433.516022 244.613495,430.389099 
	C222.855652,430.389099 201.485703,430.389099 180.247559,430.389099 
	C180.247559,434.055664 180.247559,437.331482 180.247559,441.072754 
	C188.877289,441.072754 197.268707,441.072754 206.104431,441.072754 
	C206.104431,463.589294 206.104431,485.629730 206.104431,507.682983 
	C210.291138,507.682983 214.013626,507.682983 218.000000,507.682983 
	C218.000000,493.411774 218.000000,479.455872 218.000000,464.500000 
M1605.110718,454.340576 
	C1605.024292,452.375031 1604.937744,450.409485 1604.841675,448.226318 
	C1599.275757,448.226318 1593.869873,448.226318 1588.231934,448.226318 
	C1588.231934,468.138428 1588.231934,487.835144 1588.231934,507.751953 
	C1594.156006,507.751953 1599.873413,507.751953 1606.000000,507.751953 
	C1606.000000,498.568359 1605.450928,489.584595 1606.141235,480.697052 
	C1606.974121,469.974731 1608.793213,466.935303 1617.557251,464.294586 
	C1620.117554,463.523102 1623.024292,463.901459 1625.670898,463.758301 
	C1625.670898,457.936829 1625.670898,452.535370 1625.670898,446.985107 
	C1617.899902,447.118469 1611.154663,448.928406 1605.110718,454.340576 
M1729.000000,452.637817 
	C1728.922363,451.198059 1728.844604,449.758301 1728.766235,448.306335 
	C1722.716553,448.306335 1717.001953,448.306335 1711.286133,448.306335 
	C1711.286133,468.299225 1711.286133,487.984344 1711.286133,507.689880 
	C1717.291138,507.689880 1723.006104,507.689880 1729.000000,507.689880 
	C1729.000000,489.458649 1729.000000,471.536133 1729.000000,452.637817 
M1260.000000,461.500000 
	C1260.000000,449.760895 1260.000000,438.021790 1260.000000,426.335052 
	C1255.668335,426.335052 1251.948242,426.335052 1248.301758,426.335052 
	C1248.301758,453.683716 1248.301758,480.696259 1248.301758,507.665405 
	C1252.330688,507.665405 1256.050903,507.665405 1260.000000,507.665405 
	C1260.000000,492.388000 1260.000000,477.444000 1260.000000,461.500000 
M649.031677,470.004395 
	C652.747131,462.008698 659.307129,459.004028 667.666931,459.927460 
	C667.666931,455.594543 667.666931,451.867493 667.666931,448.115356 
	C659.870972,448.952423 652.721436,450.525146 647.167358,456.565094 
	C647.025024,453.940735 646.896606,451.572662 646.777588,449.377258 
	C642.927979,449.377258 639.537415,449.377258 636.233643,449.377258 
	C636.233643,469.026337 636.233643,488.297302 636.233643,507.726349 
	C640.196167,507.726349 643.921448,507.726349 648.000000,507.726349 
	C648.000000,497.158905 647.950806,486.861481 648.044067,476.565399 
	C648.061401,474.650085 648.651733,472.739990 649.031677,470.004395 
M789.000000,499.450867 
	C789.000000,475.072388 789.000000,450.693939 789.000000,426.321533 
	C785.029297,426.321533 781.642273,426.321533 778.290771,426.321533 
	C778.290771,453.658875 778.290771,480.673706 778.290771,507.675415 
	C781.976318,507.675415 785.363281,507.675415 789.000000,507.675415 
	C789.000000,505.045990 789.000000,502.739014 789.000000,499.450867 
M1735.405518,425.000000 
	C1730.196777,425.427704 1724.516602,423.298828 1720.423950,428.939911 
	C1717.249634,433.315430 1713.299194,437.127808 1709.220581,441.723541 
	C1717.491211,442.230743 1724.424683,443.075378 1730.199097,437.079010 
	C1734.268311,432.853149 1739.254150,429.509735 1744.776489,425.000000 
	C1740.975586,425.000000 1738.659668,425.000000 1735.405518,425.000000 
z"/>
<path fill="#2045F3" opacity="1.000000" stroke="none" 
	d="
M1027.999634,226.153748 
	C1028.000000,268.508942 1028.000000,310.407257 1028.000000,352.654053 
	C1014.068420,352.654053 999.344849,352.654053 984.000000,352.654053 
	C984.000000,350.956787 984.000000,349.191650 984.000000,347.426483 
	C984.000000,310.606201 984.268738,273.782166 983.753845,236.969086 
	C983.660400,230.289581 981.016541,223.382492 978.398621,217.057068 
	C973.151672,204.379517 955.506104,200.408401 943.849792,204.549408 
	C932.085510,208.728745 926.331055,217.616180 924.090027,229.188385 
	C923.221558,233.672791 923.055237,238.346542 923.044434,242.935150 
	C922.963074,277.589325 923.000000,312.243774 923.000000,346.898163 
	C923.000000,348.712280 923.000000,350.526367 923.000000,352.669495 
	C908.036743,352.669495 893.313538,352.669495 878.000000,352.669495 
	C878.000000,350.921539 878.000000,349.152161 878.000000,347.382812 
	C878.000000,311.228973 878.099365,275.074615 877.916931,238.921677 
	C877.880066,231.612045 875.937317,224.674545 872.645569,217.892532 
	C866.491943,205.214081 849.632690,200.283173 837.174744,204.376236 
	C826.122437,208.007477 820.481812,216.436172 818.109009,227.215012 
	C817.130493,231.659912 817.054749,236.364349 817.044250,240.951843 
	C816.963684,276.272461 817.000000,311.593353 817.000000,346.914154 
	C817.000000,348.726746 817.000000,350.539368 817.000000,352.675140 
	C802.025085,352.675140 787.301880,352.675140 772.216553,352.675140 
	C772.144836,351.083374 772.009644,349.475037 772.009155,347.866638 
	C771.997314,309.546875 771.630371,271.221741 772.188843,232.910141 
	C772.400879,218.366943 776.120483,204.268478 783.914551,191.572906 
	C793.091370,176.625046 806.338135,167.229401 823.290405,163.410797 
	C845.315430,158.449509 866.620300,160.159271 885.819580,173.118118 
	C891.220703,176.763672 895.526611,182.031769 900.434814,186.649673 
	C911.553650,171.495880 927.116699,164.120392 946.044128,161.789246 
	C962.194519,159.800140 977.432373,161.966736 991.922302,168.615021 
	C1003.353882,173.860062 1011.784668,182.825775 1017.978821,193.820999 
	C1023.570374,203.746582 1026.473022,214.501465 1027.999634,226.153748 
z"/>
<path fill="#2045F3" opacity="1.000000" stroke="none" 
	d="
M1672.237061,330.732208 
	C1659.877319,313.703827 1647.772461,296.938751 1635.669678,280.172089 
	C1634.059082,277.940735 1632.460083,275.700836 1630.268188,272.645844 
	C1630.268188,299.783203 1630.268188,326.074615 1630.268188,352.681396 
	C1615.012695,352.681396 1600.290039,352.681396 1585.282471,352.681396 
	C1585.282471,261.958130 1585.282471,171.256882 1585.282471,80.277679 
	C1600.071167,80.277679 1614.793457,80.277679 1630.002441,80.277679 
	C1630.002441,132.419144 1630.002441,184.418365 1630.002441,237.631668 
	C1641.888428,222.625046 1652.823730,208.459442 1664.171265,194.632050 
	C1670.586426,186.814865 1676.940186,178.634995 1684.729736,172.369080 
	C1689.804565,168.286896 1697.272949,165.981232 1703.913696,165.314026 
	C1715.082520,164.191879 1726.446045,165.006714 1739.021118,165.006714 
	C1736.708862,168.316360 1735.119141,170.822220 1733.304199,173.152756 
	C1721.362305,188.486526 1709.376831,203.786285 1697.395752,219.089615 
	C1688.938354,229.892303 1680.559937,240.759705 1671.915649,251.410995 
	C1670.301880,253.399414 1670.473145,254.524719 1671.774048,256.299225 
	C1692.672607,284.805939 1713.526733,313.345184 1734.420410,341.855469 
	C1736.914062,345.258270 1739.579224,348.535309 1742.656250,352.504242 
	C1740.749634,352.724548 1739.558350,352.977264 1738.366333,352.981628 
	C1729.203369,353.014923 1720.029907,352.720886 1710.879517,353.060913 
	C1694.270996,353.677979 1682.421875,346.101135 1673.815918,332.483490 
	C1673.466064,331.929718 1672.937866,331.488617 1672.237061,330.732208 
z"/>
<path fill="#2045F3" opacity="1.000000" stroke="none" 
	d="
M708.419922,295.026489 
	C718.077332,293.941650 724.615234,299.119019 731.048889,304.543304 
	C733.414246,306.537598 735.789062,308.520721 738.450562,310.753052 
	C721.374756,334.054352 700.167847,350.066925 671.345276,355.136292 
	C651.667114,358.597290 632.486206,357.490234 613.721008,350.953094 
	C593.177612,343.796631 577.382935,330.589508 566.386047,311.798615 
	C559.318420,299.721954 555.483276,286.707825 553.824585,272.716370 
	C551.260376,251.087219 554.216858,230.416290 564.137756,211.290497 
	C576.887146,186.711838 597.034119,170.226089 624.284851,164.200592 
	C652.068542,158.057236 678.721069,161.197418 702.773376,177.945709 
	C718.786499,189.096085 728.434875,204.736221 733.783813,223.022171 
	C736.140930,231.080276 736.807129,239.657547 737.940430,248.039734 
	C738.600830,252.924438 738.608337,257.894379 739.017090,262.817017 
	C739.391785,267.329803 737.905151,269.134460 732.913635,269.112488 
	C688.921082,268.918488 644.927368,269.000000 600.933960,269.000000 
	C599.118652,269.000000 597.303406,269.000000 595.058716,269.000000 
	C597.028931,283.987518 603.167480,296.425262 614.577942,305.780182 
	C627.723267,316.557434 643.413513,319.495850 659.840515,317.863037 
	C673.613831,316.493988 685.537292,310.332794 696.220581,301.480164 
	C699.598938,298.680695 704.033020,297.155273 708.419922,295.026489 
M600.462830,227.036545 
	C599.179871,230.129745 597.896912,233.222946 596.450378,236.710663 
	C630.078125,236.710663 662.919556,236.710663 695.961243,236.710663 
	C695.584900,235.313370 695.336609,234.222183 694.997803,233.159882 
	C692.152649,224.240631 688.251038,216.025299 680.719543,209.920044 
	C669.368225,200.718399 656.553101,197.257538 642.079468,198.955917 
	C623.612183,201.122940 609.762329,209.960281 600.462830,227.036545 
z"/>
<path fill="#2045F3" opacity="1.000000" stroke="none" 
	d="
M268.266418,226.388336 
	C279.006287,193.882462 300.904175,173.162994 333.269470,164.584244 
	C356.027893,158.551910 379.060608,160.000671 400.598724,170.376511 
	C425.518066,182.381226 440.248566,202.958527 445.779877,229.677277 
	C448.390198,242.286285 448.731628,255.365005 450.162415,268.806885 
	C400.987305,268.806885 353.250763,268.806885 305.589783,268.806885 
	C306.788879,282.023682 311.965027,293.205383 320.915680,302.173645 
	C328.596161,309.869232 338.122314,314.993439 349.015106,316.978546 
	C368.481934,320.526154 386.289856,316.560669 402.347504,304.927704 
	C406.167084,302.160614 409.699677,298.782776 413.888855,296.787048 
	C421.675629,293.077362 429.108154,294.566620 435.717865,300.191650 
	C439.080200,303.053131 442.418640,305.999207 446.086395,308.425629 
	C448.596588,310.086273 448.495789,311.438080 446.971527,313.524811 
	C430.209442,336.472321 407.840881,351.195343 379.932983,355.698120 
	C353.401764,359.978790 327.729034,356.211060 304.532532,341.188232 
	C283.657806,327.668976 271.551910,308.169006 266.082031,284.374390 
	C261.644775,265.071777 262.520264,245.786880 268.266418,226.388336 
M316.429321,218.077713 
	C313.043915,224.073807 309.658478,230.069901 305.915131,236.699982 
	C340.151093,236.699982 372.984314,236.699982 405.869354,236.699982 
	C400.531311,206.658539 373.382019,194.799973 347.994629,199.413025 
	C335.331757,201.713959 325.351288,208.193329 316.429321,218.077713 
z"/>
<path fill="#2045F3" opacity="1.000000" stroke="none" 
	d="
M1145.999634,162.000000 
	C1160.127563,160.508911 1173.603638,161.875809 1186.501465,166.320862 
	C1216.636597,176.706482 1234.966187,198.217880 1241.761719,228.974823 
	C1244.577026,241.716644 1244.765869,255.038742 1246.216675,268.733856 
	C1197.472778,268.733856 1150.079834,268.733856 1102.166504,268.733856 
	C1101.570312,277.198151 1104.656860,284.334320 1108.484985,290.674713 
	C1121.888306,312.874725 1142.724976,320.428284 1167.466919,317.792145 
	C1180.613403,316.391418 1192.300903,310.677338 1202.186279,301.420746 
	C1211.944336,292.283356 1223.765869,292.821014 1234.743408,302.227692 
	C1237.967651,304.990631 1241.301636,307.625549 1245.541016,311.103088 
	C1239.068848,318.188873 1233.172729,325.954590 1225.977905,332.231720 
	C1213.343872,343.254120 1198.583862,350.757080 1182.095703,354.429810 
	C1165.828369,358.053375 1149.509033,358.024719 1133.194214,354.616486 
	C1120.132080,351.887817 1108.213257,346.626831 1097.330811,338.871368 
	C1079.542236,326.194336 1068.856934,308.813110 1062.975830,288.086060 
	C1059.072754,274.329681 1058.996094,260.166229 1060.275269,246.293396 
	C1062.035645,227.201767 1069.251587,209.916489 1081.582520,194.755219 
	C1095.542236,177.591324 1113.778442,168.131866 1134.783691,163.169495 
	C1138.264771,162.347092 1141.945312,162.368530 1145.999634,162.000000 
M1124.500122,237.000000 
	C1150.252930,237.000000 1176.005737,237.000000 1201.813110,237.000000 
	C1199.549194,219.886429 1187.175049,199.871002 1155.393921,198.266525 
	C1143.158569,197.648834 1131.129761,201.391846 1121.339844,209.400208 
	C1112.596436,216.552597 1105.949585,225.406906 1103.424072,237.000000 
	C1110.201660,237.000000 1116.850952,237.000000 1124.500122,237.000000 
z"/>
<path fill="#2045F3" opacity="1.000000" stroke="none" 
	d="
M126.000000,85.127594 
	C126.079788,83.194107 126.159584,81.746620 126.246635,80.167419 
	C179.838104,80.167419 233.104584,80.167419 286.685577,80.167419 
	C286.685577,92.330833 286.685577,104.389160 286.685577,116.940781 
	C267.591248,116.940781 248.529205,116.940781 229.007217,116.940781 
	C229.007217,195.820099 229.007217,274.210449 229.007217,353.006775 
	C218.425781,352.974609 209.362701,349.907959 201.392548,343.831421 
	C189.544540,334.798309 184.051041,322.488464 184.032578,307.791290 
	C183.955322,246.304688 184.000000,184.817917 184.000000,123.331215 
	C184.000000,121.370255 184.000000,119.409294 184.000000,117.155106 
	C164.627274,117.155106 145.686325,117.155106 126.000000,117.155106 
	C126.000000,106.443680 126.000000,96.028641 126.000000,85.127594 
z"/>
<path fill="#2045F3" opacity="1.000000" stroke="none" 
	d="
M1333.460327,164.551392 
	C1340.955322,164.885300 1348.108032,164.885300 1355.629883,164.885300 
	C1355.629883,178.546005 1355.629883,191.935181 1355.629883,205.817734 
	C1348.389526,205.817734 1340.988525,205.817734 1333.133545,205.817734 
	C1333.133545,255.011826 1333.133545,303.719238 1333.133545,352.712280 
	C1317.951538,352.712280 1303.231445,352.712280 1288.500000,352.712280 
	C1288.500000,303.947449 1288.500000,255.291611 1288.500000,206.145203 
	C1281.350464,206.145203 1273.950073,206.145203 1266.280518,206.145203 
	C1266.280518,192.269547 1266.280518,178.882294 1266.280518,165.179749 
	C1273.677368,165.179749 1280.953979,165.179749 1289.000000,165.179749 
	C1289.000000,156.978790 1289.225220,149.059464 1288.950439,141.157516 
	C1288.460693,127.079414 1298.949585,112.217133 1312.905396,107.539696 
	C1319.333740,105.385208 1325.718994,103.102364 1333.118042,100.532372 
	C1333.118042,122.165962 1333.118042,143.191727 1333.460327,164.551392 
z"/>
<path fill="#2045F3" opacity="1.000000" stroke="none" 
	d="
M481.000000,298.000000 
	C481.000000,225.234375 481.000000,152.968735 481.000000,80.351654 
	C495.915466,80.351654 510.635071,80.351654 525.678650,80.351654 
	C525.678650,170.940338 525.678650,261.618256 525.678650,352.648254 
	C511.084747,352.648254 496.365082,352.648254 481.000000,352.648254 
	C481.000000,334.662903 481.000000,316.581451 481.000000,298.000000 
z"/>
<path fill="#2045F3" opacity="1.000000" stroke="none" 
	d="
M1385.993896,218.828796 
	C1387.362305,200.182831 1392.793823,183.832474 1409.571899,174.278931 
	C1416.588379,170.283752 1424.817261,167.195236 1432.775024,166.358032 
	C1445.196289,165.051239 1457.856079,166.012024 1470.708984,166.012024 
	C1470.708984,178.709671 1470.708984,192.098068 1470.708984,206.000000 
	C1463.505859,206.000000 1456.394897,206.027145 1449.284058,205.993820 
	C1437.745728,205.939728 1430.059204,213.129562 1430.033325,225.333420 
	C1429.946045,266.646240 1430.000000,307.959412 1430.000000,349.272430 
	C1430.000000,350.265106 1430.000000,351.257751 1430.000000,352.625214 
	C1415.129272,352.625214 1400.406250,352.625214 1385.000000,352.625214 
	C1385.000000,351.193481 1385.000000,349.604065 1385.000000,348.014679 
	C1385.000000,307.367981 1384.984253,266.721252 1385.042358,226.074646 
	C1385.045532,223.812988 1385.659424,221.552200 1385.993896,218.828796 
z"/>
<path fill="#2045F3" opacity="1.000000" stroke="none" 
	d="
M1498.000000,233.000000 
	C1498.000000,210.211899 1498.000000,187.923782 1498.000000,165.318329 
	C1512.647827,165.318329 1527.030762,165.318329 1541.708008,165.318329 
	C1541.708008,227.668152 1541.708008,290.015350 1541.708008,352.681488 
	C1527.352539,352.681488 1512.969604,352.681488 1498.000000,352.681488 
	C1498.000000,312.954193 1498.000000,273.227081 1498.000000,233.000000 
z"/>
<path fill="#2045F3" opacity="1.000000" stroke="none" 
	d="
M966.000000,491.991150 
	C965.895874,499.523224 966.290833,506.482574 963.420959,513.330566 
	C959.068237,523.716736 951.045837,528.955261 940.524719,529.820740 
	C930.085388,530.679504 919.439880,530.737915 909.562805,525.990540 
	C907.275330,524.891052 905.060669,523.639954 902.513550,522.301514 
	C904.838867,517.871399 906.852356,513.816162 909.152832,509.930756 
	C909.438965,509.447510 911.524841,509.431946 912.307068,509.932983 
	C919.881775,514.784729 928.029175,516.357178 936.905090,515.037354 
	C943.714722,514.024780 948.106628,508.000519 947.813477,499.010162 
	C940.795837,505.977631 931.910034,506.104492 923.645874,504.628601 
	C917.761780,503.577820 911.186707,500.450317 907.153442,496.153320 
	C897.107300,485.450287 897.297363,468.690216 905.832153,457.806946 
	C913.288757,448.298584 931.167542,441.328827 948.848816,453.578033 
	C948.941895,451.847992 949.027344,450.260254 949.130859,448.336853 
	C954.538574,448.336853 959.931824,448.336853 966.000000,448.336853 
	C966.000000,462.647705 966.000000,477.070435 966.000000,491.991150 
M921.977966,485.468201 
	C928.262390,492.879425 941.125977,490.553864 945.000977,485.053040 
	C949.432190,478.762634 949.012634,471.113098 943.902039,466.403076 
	C938.324524,461.262695 927.862976,461.086975 922.473877,466.043152 
	C917.042297,471.038452 916.654480,478.014526 921.977966,485.468201 
z"/>
<path fill="#2045F3" opacity="1.000000" stroke="none" 
	d="
M1660.884277,447.000000 
	C1667.122559,448.706573 1672.909912,450.413147 1678.857544,452.166992 
	C1678.886353,451.851868 1679.040405,450.167938 1679.216431,448.242065 
	C1684.613647,448.242065 1690.033691,448.242065 1696.000000,448.242065 
	C1696.000000,451.783203 1696.000000,455.225952 1696.000000,458.668732 
	C1696.000000,472.487122 1695.978760,486.305573 1696.005371,500.123932 
	C1696.041504,518.943359 1684.871094,529.823425 1666.276367,530.069519 
	C1656.156006,530.203430 1646.303345,529.610352 1637.213257,524.632629 
	C1635.806641,523.862366 1634.531616,522.851929 1632.927979,521.772278 
	C1635.409180,517.319458 1637.747925,513.122498 1639.635010,509.735870 
	C1646.863037,511.940186 1653.337891,514.334290 1660.012085,515.850281 
	C1669.657227,518.041260 1678.629395,509.843658 1677.630005,500.161896 
	C1664.232300,507.440155 1651.408447,507.565155 1639.053101,497.635193 
	C1629.591187,490.030670 1628.308838,474.206207 1631.722656,465.702087 
	C1636.775024,453.116211 1646.242554,447.484924 1660.884277,447.000000 
M1648.923706,474.319153 
	C1647.345093,479.668732 1650.231323,485.592041 1655.697144,488.219879 
	C1662.865479,491.666229 1672.111572,490.035980 1675.706055,484.691925 
	C1678.373169,480.726501 1679.084839,472.377960 1676.675659,469.268280 
	C1672.993896,464.516052 1668.145630,461.210754 1661.961792,462.179626 
	C1655.562378,463.182220 1650.339111,466.346954 1648.923706,474.319153 
z"/>
<path fill="#2045F3" opacity="1.000000" stroke="none" 
	d="
M1568.215332,454.713013 
	C1575.212280,460.908661 1577.122314,468.877075 1578.029907,477.328339 
	C1578.485718,481.572815 1577.149780,483.227295 1572.566650,483.102936 
	C1561.075195,482.791199 1549.569702,483.000000 1538.069824,483.000000 
	C1536.473999,483.000000 1534.878174,483.000000 1533.169922,483.000000 
	C1536.187256,495.663696 1553.074707,496.598267 1560.304443,490.947113 
	C1563.121582,488.745148 1564.535889,488.736115 1566.831299,491.220703 
	C1569.181274,493.764526 1571.974121,495.899231 1574.765137,498.384216 
	C1569.033447,505.139069 1562.175781,508.165619 1554.676514,508.825989 
	C1542.423218,509.904938 1530.704346,508.276367 1521.783691,498.310608 
	C1517.093018,493.070740 1514.990112,487.123810 1514.875610,480.008118 
	C1514.732300,471.106018 1516.109375,463.036255 1522.862915,456.637024 
	C1532.473267,447.531189 1543.735352,444.975830 1556.260010,448.813934 
	C1560.351929,450.067871 1564.071777,452.535492 1568.215332,454.713013 
M1535.440186,466.073700 
	C1534.603271,467.903503 1533.766357,469.733276 1532.826904,471.787231 
	C1542.203979,471.787231 1550.943115,471.787231 1560.954468,471.787231 
	C1558.629150,468.712280 1557.297729,465.710022 1554.991455,464.137115 
	C1548.324829,459.590363 1543.846069,460.020721 1535.440186,466.073700 
z"/>
<path fill="#2045F3" opacity="1.000000" stroke="none" 
	d="
M1421.569580,504.772339 
	C1406.560425,512.677246 1385.867188,509.427521 1376.270752,498.666748 
	C1368.280029,489.706390 1367.011719,478.793945 1370.287720,467.820404 
	C1373.510254,457.025635 1381.784546,450.632477 1392.639038,448.073730 
	C1404.569702,445.261292 1415.382202,447.646149 1424.116455,456.674316 
	C1431.102539,463.895477 1432.661865,472.857422 1431.801025,482.791718 
	C1417.019531,482.791718 1402.423950,482.791718 1387.761963,482.791718 
	C1389.366089,489.789673 1394.296875,494.344879 1401.205200,493.826355 
	C1407.163940,493.379120 1413.010376,491.434021 1419.709595,489.976379 
	C1421.884277,492.257721 1425.004150,495.530609 1428.513062,499.211609 
	C1426.140747,501.140961 1424.022339,502.863739 1421.569580,504.772339 
M1401.494629,472.000000 
	C1405.580566,472.000000 1409.666504,472.000000 1413.806763,472.000000 
	C1412.937012,465.609344 1407.611206,461.134064 1401.216675,461.000946 
	C1394.854614,460.868500 1388.875000,465.644440 1387.578125,472.000000 
	C1391.904053,472.000000 1396.204712,472.000000 1401.494629,472.000000 
z"/>
<path fill="#2045F3" opacity="1.000000" stroke="none" 
	d="
M1058.836670,504.319916 
	C1052.174194,499.640503 1050.831543,488.190704 1054.834351,481.572113 
	C1058.424805,475.635315 1064.230835,473.799530 1070.459351,473.070770 
	C1077.153931,472.287445 1083.913452,472.058960 1090.658691,471.587372 
	C1091.638428,464.600861 1085.815308,462.280182 1080.463135,462.218658 
	C1075.747925,462.164429 1070.985840,463.860260 1066.297363,465.001251 
	C1064.455078,465.449615 1062.757080,466.490204 1060.732422,467.375061 
	C1059.662231,465.200195 1058.801514,463.306274 1057.818604,461.478058 
	C1053.484863,453.417694 1053.453125,454.242706 1061.681641,450.910248 
	C1073.342041,446.187897 1085.256226,445.198730 1097.216309,450.596619 
	C1104.171997,453.735840 1108.368774,459.321472 1108.751831,466.343384 
	C1109.497192,480.007874 1108.970093,493.741791 1108.970093,507.726715 
	C1104.234619,507.726715 1098.823853,507.726715 1093.136475,507.726715 
	C1093.054565,505.961609 1092.975342,504.256317 1092.883545,502.280518 
	C1082.693115,511.695557 1068.796875,510.486633 1058.836670,504.319916 
M1070.929443,487.445221 
	C1071.149170,489.330353 1070.745117,491.661530 1071.711426,493.012909 
	C1074.132202,496.398438 1081.483521,497.229614 1085.685791,495.103790 
	C1090.319580,492.759674 1091.699463,489.199860 1090.244995,483.004089 
	C1083.678101,483.205963 1076.836060,481.938690 1070.929443,487.445221 
z"/>
<path fill="#2045F3" opacity="1.000000" stroke="none" 
	d="
M1442.000000,499.942017 
	C1442.000000,482.487793 1442.000000,465.524323 1442.000000,448.281555 
	C1448.084229,448.281555 1453.829590,448.281555 1459.789795,448.281555 
	C1459.921021,449.772766 1460.048096,451.216400 1460.130371,452.151062 
	C1465.762329,450.430908 1471.354004,447.351257 1476.997803,447.252777 
	C1494.947876,446.939392 1502.274536,454.634735 1503.801270,471.883759 
	C1504.838867,483.607178 1503.999512,495.496735 1503.999512,507.655365 
	C1498.069580,507.655365 1492.341187,507.655365 1486.000000,507.655365 
	C1486.000000,498.282684 1486.087891,488.849060 1485.947632,479.418884 
	C1485.904175,476.505585 1485.537720,473.522736 1484.794434,470.710419 
	C1483.436279,465.571014 1478.104492,462.334900 1472.744751,463.007050 
	C1466.017212,463.850769 1461.072754,468.938721 1461.022705,475.345154 
	C1460.939575,485.995270 1461.000000,496.646515 1461.000000,507.648193 
	C1454.750977,507.648193 1448.689575,507.648193 1442.000000,507.648193 
	C1442.000000,505.296936 1442.000000,502.864868 1442.000000,499.942017 
z"/>
<path fill="#2045F3" opacity="1.000000" stroke="none" 
	d="
M872.658691,507.794189 
	C872.120911,506.316101 871.987305,504.997711 871.849854,503.641022 
	C861.136292,510.510559 850.310669,511.429169 839.047424,504.659149 
	C832.863708,500.942230 830.910767,493.048401 832.145081,487.069244 
	C833.536072,480.331177 837.892212,475.372894 844.710083,474.155762 
	C853.235413,472.633881 861.953918,472.193787 870.647644,471.280518 
	C870.763733,462.861908 859.724060,460.436157 852.027344,462.547272 
	C848.162537,463.607361 844.486023,465.353577 840.230225,466.978058 
	C839.205383,465.041382 838.073425,462.934631 836.972229,460.811890 
	C835.930054,458.802734 834.920227,456.776764 833.720276,454.411469 
	C843.710876,448.268982 854.371155,445.970917 865.690796,447.416931 
	C871.775391,448.194244 877.595642,449.706024 882.351440,454.584564 
	C886.701660,459.047058 888.668884,464.247528 888.865295,469.906158 
	C889.297485,482.358215 888.999512,494.835602 888.999512,507.953918 
	C883.565063,507.953918 878.313965,507.953918 872.658691,507.794189 
M866.326965,494.125854 
	C869.632751,491.332916 872.070557,488.184082 870.460388,482.649719 
	C865.283020,483.148621 859.883118,483.344788 854.624268,484.309753 
	C851.914246,484.807007 848.941589,486.820160 850.171265,490.210724 
	C850.978149,492.435547 853.190063,495.329285 855.174316,495.685181 
	C858.541809,496.289337 862.226379,495.126312 866.326965,494.125854 
z"/>
<path fill="#2045F3" opacity="1.000000" stroke="none" 
	d="
M1740.948486,486.987854 
	C1742.157593,478.371002 1748.898926,474.113678 1758.321167,473.056519 
	C1765.023438,472.304474 1771.784668,472.076141 1778.536133,471.612976 
	C1779.013428,466.296753 1775.103882,461.840759 1768.607056,462.208923 
	C1763.113403,462.520233 1757.716187,464.606384 1752.289429,465.959900 
	C1751.209839,466.229156 1750.190063,466.737823 1748.727539,467.293915 
	C1747.755371,465.328766 1746.912964,463.458160 1745.928589,461.665558 
	C1741.417358,453.450348 1741.292725,454.220337 1749.908203,450.767395 
	C1761.719604,446.033752 1773.850708,445.156616 1785.896973,450.919464 
	C1792.872559,454.256409 1796.400757,460.235992 1796.780273,467.130524 
	C1797.518555,480.539062 1796.996338,494.017029 1796.996338,507.731445 
	C1791.219849,507.731445 1785.802856,507.731445 1780.194336,507.731445 
	C1780.080933,506.302277 1779.970215,504.908142 1779.846436,503.348816 
	C1769.444458,512.157715 1750.569336,510.186646 1744.710693,502.187347 
	C1741.494019,497.795166 1738.809570,493.191986 1740.948486,486.987854 
M1778.999756,486.292725 
	C1778.243530,485.197205 1777.468994,483.147217 1776.734009,483.161285 
	C1772.006836,483.251740 1767.206665,483.384308 1762.589233,484.301544 
	C1757.825439,485.247864 1756.894043,490.008667 1760.054688,493.644104 
	C1763.454834,497.555145 1767.846680,496.402832 1771.550171,495.566162 
	C1775.419922,494.691925 1779.193481,492.315125 1778.999756,486.292725 
z"/>
<path fill="#2045F3" opacity="1.000000" stroke="none" 
	d="
M1000.149414,487.353882 
	C1004.276611,493.010620 1009.362244,494.389709 1015.520142,492.001556 
	C1020.193665,490.189056 1022.999207,485.069946 1022.999756,478.261841 
	C1023.000610,468.435272 1023.000000,458.608734 1023.000000,448.391235 
	C1028.829590,448.391235 1034.559692,448.391235 1040.648193,448.391235 
	C1040.648193,467.917542 1040.648193,487.638367 1040.648193,507.680573 
	C1035.331055,507.680573 1029.921631,507.680573 1024.210449,507.680573 
	C1024.086426,506.343262 1023.955566,504.932770 1023.948975,504.861359 
	C1017.471375,506.232117 1010.962158,508.590332 1004.385010,508.797821 
	C990.554688,509.234161 980.929016,499.116089 980.991577,485.464844 
	C981.046631,473.471100 981.027710,461.477051 981.055969,449.483154 
	C981.056702,449.178925 981.227356,448.875061 981.404053,448.287384 
	C987.052307,448.287384 992.776489,448.287384 999.000000,448.287384 
	C999.000000,458.679657 998.932800,468.957764 999.047119,479.233856 
	C999.075806,481.815216 999.686829,484.390045 1000.149414,487.353882 
z"/>
<path fill="#2045F3" opacity="1.000000" stroke="none" 
	d="
M1528.989990,80.000000 
	C1533.455322,80.000000 1537.422241,80.000000 1541.691650,80.000000 
	C1541.691650,98.314713 1541.691650,116.343605 1541.691650,134.687103 
	C1527.355835,134.687103 1512.987061,134.687103 1498.308105,134.687103 
	C1498.308105,116.684921 1498.308105,98.656036 1498.308105,80.000000 
	C1508.342529,80.000000 1518.417114,80.000000 1528.989990,80.000000 
z"/>
<path fill="#2045F3" opacity="1.000000" stroke="none" 
	d="
M362.000000,431.130096 
	C362.078918,429.200378 362.157837,427.755951 362.244659,426.166626 
	C365.836426,426.166626 369.110931,426.166626 372.693359,426.166626 
	C372.693359,453.325623 372.693359,480.372833 372.693359,507.710602 
	C369.278381,507.710602 365.876343,507.710602 362.016113,507.710602 
	C362.016113,505.617279 362.016113,503.589966 362.016113,501.202209 
	C347.227264,513.518555 329.702576,510.260437 320.757416,500.815796 
	C308.570862,487.948730 309.594177,471.080627 318.458893,459.178925 
	C327.687744,446.788300 347.754791,444.255463 362.000000,455.691772 
	C362.000000,447.458038 362.000000,439.536682 362.000000,431.130096 
M336.776642,459.982544 
	C326.473877,462.520874 322.500671,473.521027 324.155853,483.057068 
	C325.712341,492.024231 336.000336,500.391479 343.771698,498.853943 
	C352.768646,497.073883 358.913483,494.664032 361.697845,482.414429 
	C363.221771,475.710114 361.399200,469.089569 356.549072,464.307281 
	C351.433929,459.263672 344.850311,457.372589 336.776642,459.982544 
z"/>
<path fill="#2045F3" opacity="1.000000" stroke="none" 
	d="
M525.715210,508.996063 
	C517.109375,509.313416 509.813934,507.155884 503.205933,500.897064 
	C503.205933,510.463684 503.205933,519.443726 503.205933,528.706421 
	C499.301270,528.706421 495.912842,528.706421 492.258972,528.706421 
	C492.258972,502.259735 492.258972,475.898590 492.258972,449.268372 
	C495.763794,449.268372 499.165649,449.268372 502.833862,449.268372 
	C502.833862,451.329437 502.833862,453.274353 502.833862,454.270416 
	C508.635620,452.479950 514.334717,450.048004 520.276184,449.027222 
	C532.765503,446.881531 544.979614,453.182404 550.006775,464.971222 
	C555.129639,476.984375 554.181580,488.449982 545.994385,498.933258 
	C542.154663,503.849915 536.995667,506.719910 530.922546,507.996582 
	C529.337280,508.329834 527.751465,508.660889 525.715210,508.996063 
M509.040039,463.480713 
	C508.183136,464.668060 507.221100,465.794006 506.486115,467.052551 
	C501.227631,476.057098 501.855652,483.048309 507.394043,491.718811 
	C510.273621,496.226868 519.072998,500.120117 527.067505,497.965088 
	C534.297607,496.016144 540.181519,489.293671 541.004333,481.973938 
	C542.109680,472.140320 537.340027,463.785706 530.881958,460.876129 
	C523.210815,457.419952 516.356445,458.624023 509.040039,463.480713 
z"/>
<path fill="#2045F3" opacity="1.000000" stroke="none" 
	d="
M705.004028,476.265137 
	C706.448608,467.806427 708.805359,460.268188 715.568298,454.938385 
	C722.110168,449.782654 729.496643,447.459778 737.722839,448.963684 
	C742.277771,449.796387 747.012085,450.769470 751.097900,452.813782 
	C759.646423,457.090881 766.047546,470.512695 763.508606,482.902527 
	C748.178223,482.902527 732.760010,482.902527 717.302673,482.902527 
	C718.836365,496.490326 738.362793,505.071289 753.827209,492.073151 
	C754.123779,492.157349 754.517029,492.151855 754.726501,492.345367 
	C761.489075,498.592682 761.255432,501.960846 752.621399,505.604309 
	C739.393616,511.186310 723.611450,510.751190 712.766846,499.251434 
	C706.802734,492.927124 705.135071,485.071960 705.004028,476.265137 
M752.100464,471.479340 
	C749.924744,463.427826 741.336548,457.012054 734.114624,458.043182 
	C724.244873,459.452332 717.434814,465.902985 717.529358,473.998291 
	C728.479370,473.998291 739.434265,474.034698 750.387512,473.917999 
	C751.135132,473.910065 751.870605,472.753906 752.100464,471.479340 
z"/>
<path fill="#2045F3" opacity="1.000000" stroke="none" 
	d="
M1295.156494,474.000000 
	C1301.601562,474.000000 1307.566895,474.000000 1313.406006,474.000000 
	C1315.860352,466.291870 1309.066406,458.947021 1301.234009,458.878937 
	C1292.258301,458.800964 1286.031494,460.661285 1280.456055,465.503326 
	C1278.786133,462.285095 1277.207520,459.242767 1275.582397,456.110992 
	C1281.466553,451.436584 1287.733765,449.132629 1294.741089,449.032532 
	C1299.734009,448.961243 1305.031616,448.159729 1309.667236,449.501404 
	C1320.910767,452.755646 1324.950317,458.251556 1325.797119,470.090240 
	C1326.683350,482.480652 1325.995117,494.983673 1325.995117,507.717224 
	C1322.260132,507.717224 1318.850952,507.717224 1315.160645,507.717224 
	C1315.078369,506.061707 1314.998047,504.447449 1314.878052,502.034424 
	C1308.867798,507.722717 1301.727539,509.706451 1294.256348,508.876007 
	C1281.176270,507.422119 1274.774536,503.064270 1274.108276,491.469604 
	C1273.498657,480.862091 1281.243896,474.137848 1295.156494,474.000000 
M1313.997314,488.958557 
	C1313.997314,486.712280 1313.997314,484.466034 1313.997314,481.502899 
	C1306.238892,482.045929 1299.118652,482.064697 1292.213501,483.293243 
	C1289.864380,483.711151 1287.044678,486.849548 1286.244995,489.327332 
	C1285.107910,492.851379 1286.552612,496.219574 1290.527710,498.188202 
	C1298.609863,502.191010 1311.691162,498.011566 1313.997314,488.958557 
z"/>
<path fill="#2045F3" opacity="1.000000" stroke="none" 
	d="
M276.398712,448.722321 
	C295.218353,449.365417 307.091125,466.389465 303.632416,484.614227 
	C299.633240,505.687042 278.318756,513.478210 260.304260,506.603180 
	C250.356369,502.806641 242.727448,491.814362 242.833389,480.644562 
	C242.912735,472.277588 244.142624,464.821808 249.864990,458.336945 
	C254.360275,453.242767 259.907196,450.294983 266.386688,449.076324 
	C269.519379,448.487122 272.798828,448.678314 276.398712,448.722321 
M271.236237,498.069214 
	C274.317169,497.755585 277.644562,498.081940 280.432709,497.008118 
	C288.738007,493.809265 292.523224,486.456818 291.999542,475.869476 
	C291.642670,468.654236 286.226196,461.872314 278.766449,459.300415 
	C272.126953,457.011292 263.227783,459.829529 258.155151,466.478424 
	C253.616302,472.427704 252.741989,479.164978 255.701736,486.241333 
	C258.471100,492.862610 263.039856,497.170868 271.236237,498.069214 
z"/>
<path fill="#2045F3" opacity="1.000000" stroke="none" 
	d="
M448.638550,479.767181 
	C447.622559,493.713501 441.314545,503.310699 428.026306,507.435242 
	C414.225891,511.718750 398.732361,506.953674 391.406311,494.984009 
	C380.649170,477.408508 389.714294,450.539886 413.707397,448.833374 
	C422.570068,448.203003 430.359009,449.566925 437.450562,454.828766 
	C443.782257,459.526825 447.154083,465.883575 448.012817,473.665222 
	C448.225464,475.592133 448.598022,477.501434 448.638550,479.767181 
M431.513489,492.989319 
	C438.735504,482.940643 438.516418,469.488953 430.665344,463.363495 
	C423.699646,457.928833 414.903778,456.945740 406.487061,462.213928 
	C400.431671,466.004089 397.743927,476.389740 399.616730,484.281006 
	C402.665253,497.126617 418.293457,503.666382 431.513489,492.989319 
z"/>
<path fill="#2045F3" opacity="1.000000" stroke="none" 
	d="
M579.520447,506.798645 
	C560.542908,498.797333 556.134399,476.827362 566.098206,460.875397 
	C570.179016,454.342010 576.715881,450.525970 584.120667,449.166931 
	C593.775635,447.394928 603.068237,448.508636 611.413391,454.676514 
	C616.692444,458.578186 619.689819,463.666229 621.272888,469.748566 
	C624.594788,482.512268 621.216736,497.402405 608.679565,504.626312 
	C599.586548,509.865753 589.814148,510.207458 579.520447,506.798645 
M606.578125,491.911865 
	C607.767883,488.777374 609.195068,485.709747 610.100281,482.495117 
	C612.322510,474.604126 608.481628,464.940155 601.379150,461.209351 
	C593.963684,457.314178 585.123596,457.851227 578.613586,463.930450 
	C571.173523,470.878174 571.139404,484.860413 577.902832,492.504730 
	C584.598572,500.072571 598.357544,500.773407 606.578125,491.911865 
z"/>
<path fill="#2045F3" opacity="1.000000" stroke="none" 
	d="
M1175.712402,487.309875 
	C1176.733154,489.685608 1177.533203,491.742310 1178.634521,494.573944 
	C1185.353271,478.975555 1191.760864,464.099609 1198.202515,449.144745 
	C1201.966553,449.144745 1205.616455,449.144745 1209.748657,449.144745 
	C1208.106812,453.278931 1206.655151,457.328522 1204.914307,461.249695 
	C1196.545532,480.099945 1188.147705,498.937744 1179.662720,517.735962 
	C1173.576782,531.219238 1159.189697,532.419434 1149.317505,527.706665 
	C1145.794067,526.024658 1143.095215,524.138062 1146.939453,520.044739 
	C1148.000488,518.914917 1148.532837,517.288452 1149.445923,515.640381 
	C1150.865967,516.586792 1151.863281,517.434143 1153.004150,517.983582 
	C1164.442871,523.492798 1169.635742,517.729065 1171.618652,507.367554 
	C1172.306396,503.773804 1168.793579,499.316467 1167.036377,495.325287 
	C1160.369873,480.182251 1153.636475,465.068604 1146.522827,449.030609 
	C1150.658325,449.030609 1154.204590,448.859619 1157.711548,449.155365 
	C1158.548462,449.225952 1159.514282,450.738159 1159.980103,451.783691 
	C1165.200317,463.497284 1170.334351,475.249237 1175.712402,487.309875 
z"/>
<path fill="#2045F3" opacity="1.000000" stroke="none" 
	d="
M218.000000,465.000000 
	C218.000000,479.455872 218.000000,493.411774 218.000000,507.682983 
	C214.013626,507.682983 210.291138,507.682983 206.104431,507.682983 
	C206.104431,485.629730 206.104431,463.589294 206.104431,441.072754 
	C197.268707,441.072754 188.877289,441.072754 180.247559,441.072754 
	C180.247559,437.331482 180.247559,434.055664 180.247559,430.389099 
	C201.485703,430.389099 222.855652,430.389099 244.613495,430.389099 
	C244.613495,433.516022 244.613495,436.904022 244.613495,440.783051 
	C236.097092,440.783051 227.367569,440.783051 218.000000,440.783051 
	C218.000000,448.995300 218.000000,456.747650 218.000000,465.000000 
z"/>
<path fill="#2045F3" opacity="1.000000" stroke="none" 
	d="
M1605.477783,454.435242 
	C1611.154663,448.928406 1617.899902,447.118469 1625.670898,446.985107 
	C1625.670898,452.535370 1625.670898,457.936829 1625.670898,463.758301 
	C1623.024292,463.901459 1620.117554,463.523102 1617.557251,464.294586 
	C1608.793213,466.935303 1606.974121,469.974731 1606.141235,480.697052 
	C1605.450928,489.584595 1606.000000,498.568359 1606.000000,507.751953 
	C1599.873413,507.751953 1594.156006,507.751953 1588.231934,507.751953 
	C1588.231934,487.835144 1588.231934,468.138428 1588.231934,448.226318 
	C1593.869873,448.226318 1599.275757,448.226318 1604.841675,448.226318 
	C1604.937744,450.409485 1605.024292,452.375031 1605.477783,454.435242 
z"/>
<path fill="#48CED8" opacity="1.000000" stroke="none" 
	d="
M1864.054688,246.894745 
	C1867.983032,252.136185 1871.911255,257.377686 1876.270020,263.193634 
	C1869.874023,271.433075 1863.361572,279.822601 1856.382446,288.080994 
	C1853.521484,287.633331 1851.135742,287.199097 1848.731201,287.022186 
	C1841.361938,286.479889 1834.718140,284.058228 1832.237427,276.660797 
	C1830.019409,270.045898 1829.354858,262.910034 1828.313232,255.850464 
	C1836.593628,250.408554 1845.400757,248.060364 1854.926880,247.947968 
	C1857.973145,247.912018 1861.012329,247.263184 1864.054688,246.894745 
z"/>
<path fill="#2045F3" opacity="1.000000" stroke="none" 
	d="
M1729.000000,453.125732 
	C1729.000000,471.536133 1729.000000,489.458649 1729.000000,507.689880 
	C1723.006104,507.689880 1717.291138,507.689880 1711.286133,507.689880 
	C1711.286133,487.984344 1711.286133,468.299225 1711.286133,448.306335 
	C1717.001953,448.306335 1722.716553,448.306335 1728.766235,448.306335 
	C1728.844604,449.758301 1728.922363,451.198059 1729.000000,453.125732 
z"/>
<path fill="#2045F3" opacity="1.000000" stroke="none" 
	d="
M1260.000000,462.000000 
	C1260.000000,477.444000 1260.000000,492.388000 1260.000000,507.665405 
	C1256.050903,507.665405 1252.330688,507.665405 1248.301758,507.665405 
	C1248.301758,480.696259 1248.301758,453.683716 1248.301758,426.335052 
	C1251.948242,426.335052 1255.668335,426.335052 1260.000000,426.335052 
	C1260.000000,438.021790 1260.000000,449.760895 1260.000000,462.000000 
z"/>
<path fill="#2045F3" opacity="1.000000" stroke="none" 
	d="
M649.004639,470.415955 
	C648.651733,472.739990 648.061401,474.650085 648.044067,476.565399 
	C647.950806,486.861481 648.000000,497.158905 648.000000,507.726349 
	C643.921448,507.726349 640.196167,507.726349 636.233643,507.726349 
	C636.233643,488.297302 636.233643,469.026337 636.233643,449.377258 
	C639.537415,449.377258 642.927979,449.377258 646.777588,449.377258 
	C646.896606,451.572662 647.025024,453.940735 647.167358,456.565094 
	C652.721436,450.525146 659.870972,448.952423 667.666931,448.115356 
	C667.666931,451.867493 667.666931,455.594543 667.666931,459.927460 
	C659.307129,459.004028 652.747131,462.008698 649.004639,470.415955 
z"/>
<path fill="#2045F3" opacity="1.000000" stroke="none" 
	d="
M789.000000,499.941467 
	C789.000000,502.739014 789.000000,505.045990 789.000000,507.675415 
	C785.363281,507.675415 781.976318,507.675415 778.290771,507.675415 
	C778.290771,480.673706 778.290771,453.658875 778.290771,426.321533 
	C781.642273,426.321533 785.029297,426.321533 789.000000,426.321533 
	C789.000000,450.693939 789.000000,475.072388 789.000000,499.941467 
z"/>
<!-- inicio de logo #37 -->

<path fill="#40C4DE" opacity="1.000000" stroke="none"   
	d="
M1863.905762,246.587952 
	C1861.012329,247.263184 1857.973145,247.912018 1854.926880,247.947968 
	C1845.400757,248.060364 1836.593628,250.408554 1828.019775,255.710159 
	C1825.945312,254.813858 1824.472656,253.904312 1823.000244,252.594116 
	C1824.000244,248.460876 1825.000122,244.728302 1826.360352,240.960785 
	C1834.850952,236.933090 1842.981079,232.940323 1851.111328,228.947571 
	C1855.326538,234.725418 1859.541748,240.503265 1863.905762,246.587952 
z"/>
<path fill="#51C5CE" opacity="1.000000" stroke="none" 
	d="
M1823.000000,252.994781 
	C1824.472656,253.904312 1825.945312,254.813858 1827.711426,255.863708 
	C1829.354858,262.910034 1830.019409,270.045898 1832.237427,276.660797 
	C1834.718140,284.058228 1841.361938,286.479889 1848.731201,287.022186 
	C1851.135742,287.199097 1853.521484,287.633331 1856.163330,288.364319 
	C1854.490356,291.114319 1852.569824,293.449921 1850.106201,295.645691 
	C1843.665405,292.842102 1836.932251,291.199066 1832.094604,287.239868 
	C1826.796875,282.904083 1823.249512,276.429504 1818.939453,270.887024 
	C1824.513672,265.804718 1821.821289,261.269897 1818.159912,256.177338 
	C1819.875000,254.695160 1821.437500,253.844971 1823.000000,252.994781 
z"/>
<path fill="#F7460F" opacity="1.000000" stroke="none" 
	d="
M1806.104126,349.039886 
	C1801.686890,350.354980 1797.269653,351.670105 1792.382812,352.574615 
	C1788.784180,349.369385 1786.045532,345.813141 1782.433228,343.961884 
	C1777.251831,341.306519 1771.433228,339.894806 1765.886597,337.952148 
	C1767.959717,335.162140 1770.032715,332.372101 1772.550049,329.726685 
	C1775.198242,330.895660 1777.305664,332.358429 1779.623047,332.869263 
	C1790.344604,335.232758 1799.567017,339.895691 1806.104126,349.039886 
z"/>
<path fill="#959685" opacity="1.000000" stroke="none" 
	d="
M1796.872803,298.940979 
	C1798.692749,296.358612 1800.512695,293.776245 1802.823853,291.321838 
	C1814.237183,298.978455 1825.159302,306.507111 1836.081543,314.035797 
	C1834.281372,316.591217 1832.481079,319.146637 1830.030151,321.804688 
	C1823.659546,317.668488 1818.006592,313.335022 1812.198975,309.219849 
	C1807.181519,305.664673 1801.988281,302.357697 1796.872803,298.940979 
z"/>
<path fill="#39B3E4" opacity="1.000000" stroke="none" 
	d="
M1850.956787,228.637756 
	C1842.981079,232.940323 1834.850952,236.933090 1826.203491,240.646942 
	C1824.457520,237.245773 1823.228760,234.123505 1822.145264,230.700012 
	C1828.565308,225.247299 1834.840332,220.095810 1841.115234,214.944305 
	C1844.344238,219.405502 1847.573242,223.866730 1850.956787,228.637756 
z"/>
<path fill="#2366F2" opacity="1.000000" stroke="none" 
	d="
M1801.989380,167.160278 
	C1808.716553,169.289200 1812.241211,174.856873 1815.878540,180.866074 
	C1814.180176,184.362457 1812.585938,187.184616 1810.642578,190.040405 
	C1805.528931,193.048523 1800.764404,196.023026 1795.990723,198.582672 
	C1795.654175,194.778961 1795.327026,191.390091 1795.036621,187.640198 
	C1797.378662,180.572876 1799.683960,173.866577 1801.989380,167.160278 
z"/>
<path fill="#2045F3" opacity="1.000000" stroke="none" 
	d="
M1777.993408,165.162872 
	C1781.357910,165.116333 1784.722534,165.069794 1788.542725,165.505585 
	C1788.004272,170.315262 1787.578125,174.881760 1785.881104,178.913284 
	C1783.400635,184.805923 1780.008423,190.314743 1776.729004,196.117493 
	C1775.956299,196.869675 1775.459473,197.491486 1774.962646,198.113281 
	C1771.976196,194.012650 1768.989746,189.912003 1766.162842,185.174438 
	C1772.851074,179.668564 1777.630127,173.745728 1777.993408,165.162872 
z"/>
<path fill="#35A0E6" opacity="1.000000" stroke="none" 
	d="
M1840.959473,214.636932 
	C1834.840332,220.095810 1828.565308,225.247299 1821.720459,230.700928 
	C1817.104614,231.332062 1813.058716,231.661072 1809.048096,231.621338 
	C1810.390381,227.501114 1811.697632,223.749634 1813.372559,219.994812 
	C1820.303345,214.713547 1826.866455,209.435638 1833.429565,204.157761 
	C1835.887573,207.548355 1838.345581,210.938950 1840.959473,214.636932 
z"/>
<path fill="#BC795A" opacity="1.000000" stroke="none" 
	d="
M1796.578125,299.100281 
	C1801.988281,302.357697 1807.181519,305.664673 1812.198975,309.219849 
	C1818.006592,313.335022 1823.659546,317.668488 1829.735718,321.965881 
	C1828.294800,324.271179 1826.497681,326.517883 1824.084717,328.755829 
	C1813.625122,319.621033 1802.257935,312.955414 1789.867920,307.941833 
	C1792.006470,305.047729 1794.144897,302.153625 1796.578125,299.100281 
z"/>
<path fill="#2152F2" opacity="1.000000" stroke="none" 
	d="
M1777.004883,195.987183 
	C1780.008423,190.314743 1783.400635,184.805923 1785.881104,178.913284 
	C1787.578125,174.881760 1788.004272,170.315262 1788.996338,165.573975 
	C1793.089478,165.707947 1797.184937,166.255859 1801.634766,166.982025 
	C1799.683960,173.866577 1797.378662,180.572876 1794.679810,187.675079 
	C1788.525757,190.709717 1782.765381,193.348450 1777.004883,195.987183 
z"/>
<path fill="#FC3C04" opacity="1.000000" stroke="none" 
	d="
M1765.580688,338.105957 
	C1771.433228,339.894806 1777.251831,341.306519 1782.433228,343.961884 
	C1786.045532,345.813141 1788.784180,349.369385 1791.952393,352.497894 
	C1779.783569,352.831787 1767.575439,352.831787 1754.477539,352.831787 
	C1758.312500,347.656036 1761.793701,342.957886 1765.580688,338.105957 
z"/>
<path fill="#43ABD8" opacity="1.000000" stroke="none" 
	d="
M1809.012939,231.990051 
	C1813.058716,231.661072 1817.104614,231.332062 1821.575195,231.002151 
	C1823.228760,234.123505 1824.457520,237.245773 1825.843140,240.681870 
	C1825.000122,244.728302 1824.000244,248.460876 1823.000244,252.594116 
	C1821.437500,253.844971 1819.875000,254.695160 1818.131836,255.823624 
	C1813.297852,249.988693 1808.644653,243.875473 1804.249878,237.266281 
	C1806.009766,235.176880 1807.511353,233.583466 1809.012939,231.990051 
z"/>
<path fill="#2E72E8" opacity="1.000000" stroke="none" 
	d="
M1796.000000,198.997543 
	C1800.764404,196.023026 1805.528931,193.048523 1810.639526,190.423981 
	C1808.323853,198.179611 1805.661987,205.585266 1802.847168,213.297165 
	C1799.117188,216.107407 1795.539917,218.611404 1791.962769,221.115417 
	C1789.640259,217.993973 1787.317627,214.872543 1785.299316,211.354706 
	C1789.069092,206.971375 1792.534546,202.984467 1796.000000,198.997543 
z"/>
<path fill="#1F37F0" opacity="1.000000" stroke="none" 
	d="
M1777.529663,165.094238 
	C1777.630127,173.745728 1772.851074,179.668564 1766.138672,184.820602 
	C1760.928955,178.643143 1755.903076,172.182587 1750.335449,165.025589 
	C1760.117798,165.025589 1768.591797,165.025589 1777.529663,165.094238 
z"/>
<path fill="#297FEE" opacity="1.000000" stroke="none" 
	d="
M1803.000000,212.990906 
	C1805.661987,205.585266 1808.323853,198.179611 1810.988770,190.390366 
	C1812.585938,187.184616 1814.180176,184.362457 1815.916016,181.216492 
	C1819.370605,185.343796 1822.683350,189.794891 1825.744995,194.742218 
	C1819.997437,201.158310 1814.501099,207.078186 1808.576050,212.998596 
	C1806.431519,212.996399 1804.715698,212.993637 1803.000000,212.990906 
z"/>
<path fill="#F0501C" opacity="1.000000" stroke="none" 
	d="
M1806.448975,349.019714 
	C1799.567017,339.895691 1790.344604,335.232758 1779.623047,332.869263 
	C1777.305664,332.358429 1775.198242,330.895660 1772.829834,329.484619 
	C1773.877808,327.476562 1775.090088,325.855194 1776.934570,324.237854 
	C1778.449951,324.685669 1779.298218,325.225098 1780.220947,325.558899 
	C1792.011230,329.823761 1804.812866,332.174286 1813.100830,343.029907 
	C1810.998413,345.019775 1808.896118,347.009644 1806.448975,349.019714 
z"/>
<path fill="#2045F3" opacity="1.000000" stroke="none" 
	d="
M1735.874512,425.000000 
	C1738.659668,425.000000 1740.975586,425.000000 1744.776489,425.000000 
	C1739.254150,429.509735 1734.268311,432.853149 1730.199097,437.079010 
	C1724.424683,443.075378 1717.491211,442.230743 1709.220581,441.723541 
	C1713.299194,437.127808 1717.249634,433.315430 1720.423950,428.939911 
	C1724.516602,423.298828 1730.196777,425.427704 1735.874512,425.000000 
z"/>
<path fill="#3989DE" opacity="1.000000" stroke="none" 
	d="
M1802.847168,213.297150 
	C1804.715698,212.993637 1806.431519,212.996399 1808.608521,213.349884 
	C1810.381592,215.799805 1811.693237,217.898987 1813.004883,219.998154 
	C1811.697632,223.749634 1810.390381,227.501114 1809.048096,231.621323 
	C1807.511353,233.583466 1806.009766,235.176880 1804.208130,236.913452 
	C1800.014893,231.952316 1796.121826,226.848022 1792.095703,221.429565 
	C1795.539917,218.611404 1799.117188,216.107407 1802.847168,213.297150 
z"/>
<path fill="#2E90EB" opacity="1.000000" stroke="none" 
	d="
M1813.372559,219.994812 
	C1811.693237,217.898987 1810.381592,215.799805 1809.037354,213.349350 
	C1814.501099,207.078186 1819.997437,201.158310 1825.804443,195.095612 
	C1828.431763,197.853806 1830.748413,200.754822 1833.247314,203.906799 
	C1826.866455,209.435638 1820.303345,214.713547 1813.372559,219.994812 
z"/>
<path fill="#E4592A" opacity="1.000000" stroke="none" 
	d="
M1813.406250,342.906433 
	C1804.812866,332.174286 1792.011230,329.823761 1780.220947,325.558899 
	C1779.298218,325.225098 1778.449951,324.685669 1777.223022,324.091736 
	C1778.696655,321.687927 1780.514282,319.434265 1782.793457,317.356262 
	C1784.427002,318.379974 1785.481079,319.567291 1786.789795,320.022827 
	C1798.128540,323.969177 1809.019409,328.618195 1817.101562,338.028687 
	C1815.971680,339.613464 1814.841675,341.198212 1813.406250,342.906433 
z"/>
<path fill="#2A5DE9" opacity="1.000000" stroke="none" 
	d="
M1795.990723,198.582703 
	C1792.534546,202.984467 1789.069092,206.971375 1785.252197,211.000992 
	C1781.674927,206.943329 1778.449219,202.842972 1775.093018,198.427948 
	C1775.459473,197.491486 1775.956299,196.869675 1776.729004,196.117523 
	C1782.765381,193.348450 1788.525757,190.709717 1794.643066,188.036102 
	C1795.327026,191.390091 1795.654175,194.778961 1795.990723,198.582703 
z"/>
<path fill="#5FBDBF" opacity="1.000000" stroke="none" 
	d="
M1818.640259,271.037628 
	C1823.249512,276.429504 1826.796875,282.904083 1832.094604,287.239868 
	C1836.932251,291.199066 1843.665405,292.842102 1849.802979,295.797180 
	C1848.922119,297.645020 1847.801392,299.201538 1846.009766,300.847137 
	C1832.457275,296.077057 1821.720093,288.405731 1813.875000,276.942078 
	C1815.363770,275.024139 1816.852417,273.106171 1818.640259,271.037628 
z"/>
<path fill="#D6653C" opacity="1.000000" stroke="none" 
	d="
M1817.406250,337.904846 
	C1809.019409,328.618195 1798.128540,323.969177 1786.789795,320.022827 
	C1785.481079,319.567291 1784.427002,318.379974 1783.098877,317.209473 
	C1783.720947,315.665558 1784.499023,314.444092 1785.950439,313.133514 
	C1789.219238,314.043274 1791.850586,314.958496 1794.403687,316.055756 
	C1804.212646,320.271698 1813.382202,325.510773 1821.095459,333.030304 
	C1819.967285,334.613892 1818.838989,336.197479 1817.406250,337.904846 
z"/>
<path fill="#7AAAA2" opacity="1.000000" stroke="none" 
	d="
M1842.048096,306.078064 
	C1840.914795,307.648499 1839.781494,309.218933 1838.195068,310.625488 
	C1827.117554,302.621246 1816.493408,294.780884 1805.869141,286.940552 
	C1807.028931,285.354675 1808.188599,283.768829 1809.828247,282.314606 
	C1816.180908,287.442596 1821.861328,292.692352 1827.991821,297.349731 
	C1832.364014,300.671417 1837.341064,303.197144 1842.048096,306.078064 
z"/>
<path fill="#C8704C" opacity="1.000000" stroke="none" 
	d="
M1821.394531,332.906525 
	C1813.382202,325.510773 1804.212646,320.271698 1794.403687,316.055756 
	C1791.850586,314.958496 1789.219238,314.043274 1786.243774,312.994995 
	C1787.000000,311.372559 1788.136475,309.799530 1789.570435,308.084167 
	C1802.257935,312.955414 1813.625122,319.621033 1823.778320,328.891602 
	C1823.289673,330.285004 1822.491577,331.533875 1821.394531,332.906525 
z"/>
<path fill="#6CB4B1" opacity="1.000000" stroke="none" 
	d="
M1842.345947,305.933594 
	C1837.341064,303.197144 1832.364014,300.671417 1827.991821,297.349731 
	C1821.861328,292.692352 1816.180908,287.442596 1810.123779,282.160614 
	C1811.058105,280.327301 1812.176758,278.779602 1813.585205,277.086975 
	C1821.720093,288.405731 1832.457275,296.077057 1845.715332,300.986725 
	C1844.942627,302.621185 1843.793213,304.205170 1842.345947,305.933594 
z"/>
<path fill="#87A093" opacity="1.000000" stroke="none" 
	d="
M1805.600342,287.102386 
	C1816.493408,294.780884 1827.117554,302.621246 1837.895752,310.769714 
	C1837.586182,311.976654 1837.122803,312.875580 1836.370361,313.905151 
	C1825.159302,306.507111 1814.237183,298.978455 1803.126831,291.161499 
	C1803.736328,289.670227 1804.533936,288.467224 1805.600342,287.102386 
z"/>
<path fill="#FFFFFF" opacity="1.000000" stroke="none" 
	d="
M600.693787,226.733185 
	C609.762329,209.960281 623.612183,201.122940 642.079468,198.955917 
	C656.553101,197.257538 669.368225,200.718399 680.719543,209.920044 
	C688.251038,216.025299 692.152649,224.240631 694.997803,233.159882 
	C695.336609,234.222183 695.584900,235.313370 695.961243,236.710663 
	C662.919556,236.710663 630.078125,236.710663 596.450378,236.710663 
	C597.896912,233.222946 599.179871,230.129745 600.693787,226.733185 
z"/>
<path fill="#FFFFFF" opacity="1.000000" stroke="none" 
	d="
M316.689758,217.825699 
	C325.351288,208.193329 335.331757,201.713959 347.994629,199.413025 
	C373.382019,194.799973 400.531311,206.658539 405.869354,236.699982 
	C372.984314,236.699982 340.151093,236.699982 305.915131,236.699982 
	C309.658478,230.069901 313.043915,224.073807 316.689758,217.825699 
z"/>
<path fill="#FFFFFF" opacity="1.000000" stroke="none" 
	d="
M1124.000244,237.000000 
	C1116.850952,237.000000 1110.201660,237.000000 1103.424072,237.000000 
	C1105.949585,225.406906 1112.596436,216.552597 1121.339844,209.400208 
	C1131.129761,201.391846 1143.158569,197.648834 1155.393921,198.266525 
	C1187.175049,199.871002 1199.549194,219.886429 1201.813110,237.000000 
	C1176.005737,237.000000 1150.252930,237.000000 1124.000244,237.000000 
z"/>
<path fill="#FFFFFF" opacity="1.000000" stroke="none" 
	d="
M921.700684,485.205688 
	C916.654480,478.014526 917.042297,471.038452 922.473877,466.043152 
	C927.862976,461.086975 938.324524,461.262695 943.902039,466.403076 
	C949.012634,471.113098 949.432190,478.762634 945.000977,485.053040 
	C941.125977,490.553864 928.262390,492.879425 921.700684,485.205688 
z"/>
<path fill="#FFFFFF" opacity="1.000000" stroke="none" 
	d="
M1648.956543,473.920410 
	C1650.339111,466.346954 1655.562378,463.182220 1661.961792,462.179626 
	C1668.145630,461.210754 1672.993896,464.516052 1676.675659,469.268280 
	C1679.084839,472.377960 1678.373169,480.726501 1675.706055,484.691925 
	C1672.111572,490.035980 1662.865479,491.666229 1655.697144,488.219879 
	C1650.231323,485.592041 1647.345093,479.668732 1648.956543,473.920410 
z"/>
<path fill="#FFFFFF" opacity="1.000000" stroke="none" 
	d="
M1535.712646,465.800354 
	C1543.846069,460.020721 1548.324829,459.590363 1554.991455,464.137115 
	C1557.297729,465.710022 1558.629150,468.712280 1560.954468,471.787231 
	C1550.943115,471.787231 1542.203979,471.787231 1532.826904,471.787231 
	C1533.766357,469.733276 1534.603271,467.903503 1535.712646,465.800354 
z"/>
<path fill="#FFFFFF" opacity="1.000000" stroke="none" 
	d="
M1401.000000,472.000000 
	C1396.204712,472.000000 1391.904053,472.000000 1387.578125,472.000000 
	C1388.875000,465.644440 1394.854614,460.868500 1401.216675,461.000946 
	C1407.611206,461.134064 1412.937012,465.609344 1413.806763,472.000000 
	C1409.666504,472.000000 1405.580566,472.000000 1401.000000,472.000000 
z"/>
<path fill="#FFFFFF" opacity="1.000000" stroke="none" 
	d="
M1070.999146,487.054199 
	C1076.836060,481.938690 1083.678101,483.205963 1090.244995,483.004089 
	C1091.699463,489.199860 1090.319580,492.759674 1085.685791,495.103790 
	C1081.483521,497.229614 1074.132202,496.398438 1071.711426,493.012909 
	C1070.745117,491.661530 1071.149170,489.330353 1070.999146,487.054199 
z"/>
<path fill="#FFFFFF" opacity="1.000000" stroke="none" 
	d="
M866.052307,494.415894 
	C862.226379,495.126312 858.541809,496.289337 855.174316,495.685181 
	C853.190063,495.329285 850.978149,492.435547 850.171265,490.210724 
	C848.941589,486.820160 851.914246,484.807007 854.624268,484.309753 
	C859.883118,483.344788 865.283020,483.148621 870.460388,482.649719 
	C872.070557,488.184082 869.632751,491.332916 866.052307,494.415894 
z"/>
<path fill="#FFFFFF" opacity="1.000000" stroke="none" 
	d="
M1778.999756,486.725159 
	C1779.193481,492.315125 1775.419922,494.691925 1771.550171,495.566162 
	C1767.846680,496.402832 1763.454834,497.555145 1760.054688,493.644104 
	C1756.894043,490.008667 1757.825439,485.247864 1762.589233,484.301544 
	C1767.206665,483.384308 1772.006836,483.251740 1776.734009,483.161285 
	C1777.468994,483.147217 1778.243530,485.197205 1778.999756,486.725159 
z"/>
<path fill="#FFFFFF" opacity="1.000000" stroke="none" 
	d="
M337.189728,459.915375 
	C344.850311,457.372589 351.433929,459.263672 356.549072,464.307281 
	C361.399200,469.089569 363.221771,475.710114 361.697845,482.414429 
	C358.913483,494.664032 352.768646,497.073883 343.771698,498.853943 
	C336.000336,500.391479 325.712341,492.024231 324.155853,483.057068 
	C322.500671,473.521027 326.473877,462.520874 337.189728,459.915375 
z"/>
<path fill="#FFFFFF" opacity="1.000000" stroke="none" 
	d="
M509.353638,463.268768 
	C516.356445,458.624023 523.210815,457.419952 530.881958,460.876129 
	C537.340027,463.785706 542.109680,472.140320 541.004333,481.973938 
	C540.181519,489.293671 534.297607,496.016144 527.067505,497.965088 
	C519.072998,500.120117 510.273621,496.226868 507.394043,491.718811 
	C501.855652,483.048309 501.227631,476.057098 506.486115,467.052551 
	C507.221100,465.794006 508.183136,464.668060 509.353638,463.268768 
z"/>
<path fill="#FFFFFF" opacity="1.000000" stroke="none" 
	d="
M752.356079,471.805542 
	C751.870605,472.753906 751.135132,473.910065 750.387512,473.917999 
	C739.434265,474.034698 728.479370,473.998291 717.529358,473.998291 
	C717.434814,465.902985 724.244873,459.452332 734.114624,458.043182 
	C741.336548,457.012054 749.924744,463.427826 752.356079,471.805542 
z"/>
<path fill="#FFFFFF" opacity="1.000000" stroke="none" 
	d="
M1313.986816,489.380676 
	C1311.691162,498.011566 1298.609863,502.191010 1290.527710,498.188202 
	C1286.552612,496.219574 1285.107910,492.851379 1286.244995,489.327332 
	C1287.044678,486.849548 1289.864380,483.711151 1292.213501,483.293243 
	C1299.118652,482.064697 1306.238892,482.045929 1313.997314,481.502899 
	C1313.997314,484.466034 1313.997314,486.712280 1313.986816,489.380676 
z"/>
<path fill="#FFFFFF" opacity="1.000000" stroke="none" 
	d="
M270.823364,498.039551 
	C263.039856,497.170868 258.471100,492.862610 255.701736,486.241333 
	C252.741989,479.164978 253.616302,472.427704 258.155151,466.478424 
	C263.227783,459.829529 272.126953,457.011292 278.766449,459.300415 
	C286.226196,461.872314 291.642670,468.654236 291.999542,475.869476 
	C292.523224,486.456818 288.738007,493.809265 280.432709,497.008118 
	C277.644562,498.081940 274.317169,497.755585 270.823364,498.039551 
z"/>
<path fill="#FFFFFF" opacity="1.000000" stroke="none" 
	d="
M431.247620,493.257263 
	C418.293457,503.666382 402.665253,497.126617 399.616730,484.281006 
	C397.743927,476.389740 400.431671,466.004089 406.487061,462.213928 
	C414.903778,456.945740 423.699646,457.928833 430.665344,463.363495 
	C438.516418,469.488953 438.735504,482.940643 431.247620,493.257263 
z"/>
<path fill="#FFFFFF" opacity="1.000000" stroke="none" 
	d="
M606.308228,492.176483 
	C598.357544,500.773407 584.598572,500.072571 577.902832,492.504730 
	C571.139404,484.860413 571.173523,470.878174 578.613586,463.930450 
	C585.123596,457.851227 593.963684,457.314178 601.379150,461.209351 
	C608.481628,464.940155 612.322510,474.604126 610.100281,482.495117 
	C609.195068,485.709747 607.767883,488.777374 606.308228,492.176483 
z"/>
</svg>