<svg xmlns="http://www.w3.org/2000/svg" width="250" height="250" viewBox="170 90 270 480"><path d="M109.262 179.892c-4.937-5.948-5.775-7.069-5.775-7.73 0-.384.97-3.497 2.156-6.919 4.527-13.068 4.296-11.574 2.265-14.627-.982-1.475-1.785-2.727-1.785-2.781s-.593-.967-1.318-2.026c-1.427-2.086-1.651-3.202-.782-3.9.78-.626 14.506-.648 15.509-.025 1.045.65.817 1.662-1.007 4.46-3.948 6.055-4.493 6.914-4.493 7.073 0 .174.955 3.01 4.221 12.528 1.062 3.093 1.93 5.91 1.93 6.258 0 .4-1.331 2.259-3.604 5.031-3.429 4.184-3.655 4.4-4.672 4.477-1.02.076-1.138-.004-2.645-1.82m-38.18-3.735c-.442-.598-.474-1.354-.308-7.342.206-7.423.516-10.197 1.54-13.788 1.018-3.567 2.494-6.054 4.843-8.157 3.134-2.804 6.213-3.85 12.89-4.373 3.187-.25 3.88-.238 4.41.073.431.254 1.347 2.04 2.914 5.682 2.284 5.312 2.284 5.312 2.296 16.364.011 9.594-.048 11.128-.444 11.63-.456.577-.456.577-14.053.577s-13.597 0-14.089-.666m53.365.089c-.396-.501-.456-2.044-.452-11.63.005-11.052.005-11.052 2.3-16.365 1.564-3.621 2.494-5.431 2.92-5.682.527-.31 1.223-.322 4.365-.073 6.736.533 9.686 1.54 12.993 4.437 2.299 2.014 3.75 4.473 4.788 8.111 1.02 3.573 1.33 6.356 1.535 13.771.166 5.988.134 6.744-.307 7.342-.492.666-.492.666-14.09.666-13.596 0-13.596 0-14.052-.578m-16.2-39.066c-4.34-1.037-7.933-3.938-10.592-8.551-2.102-3.646-3.118-7.3-3.547-12.748-.135-1.715-.448-3.878-.695-4.807-.586-2.2-.596-6.222-.02-8.183 1.257-4.283 4.827-7.28 10.39-8.722 3.115-.808 10.604-1.014 14.09-.387 6.57 1.181 10.91 4.59 12.42 9.755.6 2.047.481 6.985-.23 9.616-.25.929-.592 3.034-.76 4.678-.673 6.63-3.192 12.042-7.363 15.818-1.047.948-2.572 2.041-3.39 2.43-3.047 1.447-7.059 1.876-10.303 1.1m6.009-3.347c4.18-.988 7.466-4.23 9.543-9.415.885-2.21 1.656-5.64 1.656-7.365 0-1.24 0-1.24-2.856-1.423-6.887-.442-12.843-1.784-18.219-4.105-3.06-1.322-3.06-1.322-4.76.342-1.92 1.882-1.928 1.918-1.394 6.093 1.058 8.28 5.424 14.53 11.099 15.888 1.785.427 3.075.423 4.93-.015" /></svg>