<svg xmlns="http://www.w3.org/2000/svg"  width="250" height="250" viewBox="150 70 280 480"><path d="M59.863 164.029c-.622-.54-.657-.951-.657-7.547 0-4.613.167-8.116.504-10.343.277-1.852.739-4.138 1.028-5.08.287-.94 1.117-2.798 1.841-4.125.926-1.694 1.868-2.892 3.166-4.018 1.148-.995 2.691-1.952 4.07-2.523 1.222-.505 3.22-1.102 4.44-1.326s3.131-.41 4.247-.414c1.117-.003 2.257.08 2.533.161.278.101.938.767 1.466 1.498.529.731 3.064 4.316 5.634 7.964 2.57 3.65 4.774 6.634 4.898 6.634.12 0 1.593-1.19 3.263-2.645 3.036-2.645 3.036-2.645.248-6.776-1.845-2.735-2.79-4.43-2.796-5.015-.004-.5.254-1.088.593-1.355.522-.41 1.571-.472 7.894-.472 6.853 0 7.331.04 7.95.571.36.313.657.844.657 1.18 0 .334-1.258 2.507-2.796 4.829s-2.795 4.333-2.795 4.47c0 .141 1.413 1.381 3.141 2.765 1.726 1.384 3.19 2.469 3.248 2.411.048-.06 2.362-3.314 5.12-7.237 2.756-3.924 5.372-7.551 5.812-8.061.765-.887.9-.927 3.005-.923 1.212.003 3.239.202 4.505.424 1.268.23 3.34.862 4.608 1.403 1.358.58 3.008 1.598 4.013 2.475 1.045.91 2.229 2.387 3.044 3.799.734 1.27 1.626 3.316 1.983 4.548a45 45 0 0 1 .994 4.422c.191 1.202.433 5.586.538 9.745.191 7.479.191 7.57-.528 8.346-.722.786-.722.786-42.467.786-41.307 0-41.752-.006-42.403-.572zm19.478-41.817c-.732-.445-.732-.445-.732-15.213 0-9.44.12-15.38.359-16.462.191-.93.803-2.696 1.348-3.922.557-1.254 1.731-3.082 2.684-4.179.932-1.072 2.435-2.483 3.34-3.136.903-.652 2.68-1.62 3.946-2.149s3.19-1.17 4.276-1.43c1.116-.264 3.9-.532 6.413-.621 3.683-.121 4.992-.06 7.675.428 2.124.381 4.207 1 6.06 1.797 2.124.913 3.403 1.718 5.152 3.243 1.559 1.361 2.78 2.777 3.702 4.296.755 1.246 1.712 3.23 2.12 4.408.727 2.085.749 2.521.864 17.084.12 14.944.12 14.944-.617 15.622-.734.678-.734.678-23.297.678-19.89 0-22.65-.06-23.294-.444zm25.489-5.694c1.056-.272 2.276-.902 3.313-1.712.904-.705 2.104-1.906 2.672-2.672.566-.765 1.458-2.412 1.982-3.658.523-1.246 1.102-3.028 1.286-3.959.191-.93.428-2.597.545-3.702.215-2.01.215-2.01-3.843-2.363-2.23-.202-5.388-.606-7.016-.917-1.628-.31-4.144-.9-5.59-1.31-1.447-.41-3.927-1.309-5.51-1.995-2.877-1.248-2.877-1.248-2.877 2.851 0 2.378.215 5.163.502 6.633.275 1.393.74 3.176 1.033 3.96.291.786.896 2.07 1.346 2.854.447.785 1.353 2.043 2.008 2.797.658.754 1.891 1.76 2.742 2.233.85.474 1.96.969 2.467 1.102.507.142 1.45.25 2.095.265.645.013 1.927-.162 2.846-.406z" /></svg>